<svg width="131" height="20" viewBox="0 0 131 20" fill="none" xmlns="http://www.w3.org/2000/svg">
<path fill-rule="evenodd" clip-rule="evenodd" d="M46.4471 0.543642C46.4471 0.579913 46.2571 0.606685 46.0024 0.606685C45.7485 0.606685 45.5585 0.63432 45.5585 0.670591C45.5585 0.705135 45.4151 0.733633 45.2407 0.733633C45.0662 0.733633 44.9229 0.762132 44.9229 0.797539C44.9229 0.832083 44.8089 0.860582 44.669 0.860582C44.5299 0.860582 44.4151 0.88908 44.4151 0.924488C44.4151 0.959032 44.3296 0.98753 44.2251 0.98753C44.1206 0.98753 44.0351 1.01603 44.0351 1.05144C44.0351 1.08598 43.9487 1.11448 43.8442 1.11448C43.7389 1.11448 43.6542 1.14298 43.6542 1.17838C43.6542 1.21293 43.5679 1.24143 43.4634 1.24143C43.358 1.24143 43.2725 1.26993 43.2725 1.30533C43.2725 1.33988 43.2155 1.36838 43.1456 1.36838C43.0765 1.36838 43.0186 1.39774 43.0186 1.43228C43.0186 1.46683 42.9616 1.49532 42.8917 1.49532C42.8226 1.49532 42.7647 1.52469 42.7647 1.55923C42.7647 1.59377 42.7077 1.62227 42.6378 1.62227C42.5678 1.62227 42.5108 1.65164 42.5108 1.68618C42.5108 1.72072 42.4538 1.75008 42.3839 1.75008C42.3139 1.75008 42.2569 1.77858 42.2569 1.81313C42.2569 1.84767 42.2051 1.87703 42.1438 1.87703C42.0816 1.87703 41.9901 1.93403 41.9391 2.00398C41.8891 2.07307 41.8036 2.13093 41.7492 2.13093C41.6947 2.13093 41.6084 2.18793 41.5592 2.25788C41.5073 2.32697 41.427 2.38483 41.3795 2.38483C41.3312 2.38483 41.212 2.47032 41.1144 2.57482C41.016 2.68018 40.9046 2.76481 40.8657 2.76481C40.7733 2.76481 39.4632 4.07575 39.4632 4.16729C39.4632 4.20615 39.3769 4.31842 39.2732 4.416C39.1679 4.51359 39.0824 4.63363 39.0824 4.68113C39.0824 4.72949 39.0254 4.81067 38.9554 4.86075C38.8863 4.91084 38.8285 5.00325 38.8285 5.06543C38.8285 5.12674 38.8 5.17769 38.7646 5.17769C38.73 5.17769 38.7015 5.23469 38.7015 5.30464C38.7015 5.37459 38.673 5.43159 38.6376 5.43159C38.6031 5.43159 38.5746 5.48945 38.5746 5.55854C38.5746 5.62849 38.5461 5.68549 38.5107 5.68549C38.4761 5.68549 38.4476 5.74335 38.4476 5.81244C38.4476 5.88239 38.4191 5.94025 38.3837 5.94025C38.3492 5.94025 38.3207 5.99725 38.3207 6.0672C38.3207 6.13629 38.2922 6.19415 38.2568 6.19415C38.2222 6.19415 38.1937 6.27964 38.1937 6.38414C38.1937 6.48863 38.1652 6.57413 38.1298 6.57413C38.0953 6.57413 38.0668 6.63199 38.0668 6.70194C38.0668 6.77103 38.0383 6.82889 38.0029 6.82889C37.9683 6.82889 37.9398 6.91438 37.9398 7.01888C37.9398 7.12424 37.9113 7.20887 37.8759 7.20887C37.8414 7.20887 37.8129 7.29523 37.8129 7.39972C37.8129 7.50508 37.7844 7.58972 37.749 7.58972C37.7144 7.58972 37.6859 7.73307 37.6859 7.90752C37.6859 8.08283 37.6574 8.22532 37.622 8.22532C37.5858 8.22532 37.559 8.41531 37.559 8.67007C37.559 8.92397 37.5314 9.11396 37.4951 9.11396C37.4554 9.11396 37.432 9.5164 37.432 10.1935C37.432 10.8705 37.4554 11.2729 37.4951 11.2729C37.5322 11.2729 37.559 11.4845 37.559 11.7807C37.559 12.077 37.5849 12.2885 37.622 12.2885C37.6566 12.2885 37.6859 12.4025 37.6859 12.5424C37.6859 12.6823 37.7144 12.7963 37.749 12.7963C37.7835 12.7963 37.8129 12.9112 37.8129 13.0502C37.8129 13.1901 37.8414 13.3041 37.8759 13.3041C37.9105 13.3041 37.9398 13.3905 37.9398 13.4941C37.9398 13.5995 37.9683 13.685 38.0029 13.685C38.0374 13.685 38.0668 13.742 38.0668 13.8119C38.0668 13.8819 38.0953 13.9389 38.1298 13.9389C38.1644 13.9389 38.1937 14.0252 38.1937 14.1297C38.1937 14.2342 38.2222 14.3197 38.2568 14.3197C38.2913 14.3197 38.3207 14.3776 38.3207 14.4467C38.3207 14.5166 38.3492 14.5745 38.3837 14.5745C38.4183 14.5745 38.4476 14.6315 38.4476 14.7014C38.4476 14.7705 38.4761 14.8284 38.5107 14.8284C38.5452 14.8284 38.5746 14.8854 38.5746 14.9553C38.5746 15.0244 38.6031 15.0823 38.6376 15.0823C38.6722 15.0823 38.7015 15.1332 38.7015 15.1945C38.7015 15.2567 38.7585 15.3491 38.8285 15.3992C38.8976 15.4502 38.9554 15.5357 38.9554 15.5892C38.9554 15.6445 39.0124 15.73 39.0824 15.7801C39.1515 15.831 39.2093 15.9105 39.2093 15.958C39.2093 16.0055 39.3233 16.154 39.4632 16.2887C39.6031 16.4226 39.7171 16.5633 39.7171 16.6022C39.7171 16.6929 40.5194 17.4943 40.6101 17.4943C40.6481 17.4943 40.7897 17.6091 40.9236 17.7482C41.0574 17.8881 41.206 18.0021 41.2534 18.0021C41.3009 18.0021 41.3813 18.0591 41.4314 18.129C41.4814 18.199 41.5678 18.256 41.6213 18.256C41.6766 18.256 41.7621 18.3138 41.8122 18.3829C41.8623 18.4529 41.9547 18.5107 42.0169 18.5107C42.079 18.5107 42.1291 18.5392 42.1291 18.5738C42.1291 18.6083 42.181 18.6368 42.2431 18.6368C42.3053 18.6368 42.3968 18.6947 42.4469 18.7646C42.5013 18.8389 42.611 18.8916 42.7147 18.8916C42.8122 18.8916 42.8917 18.9201 42.8917 18.9546C42.8917 18.9892 42.9487 19.0185 43.0186 19.0185C43.0877 19.0185 43.1456 19.047 43.1456 19.0816C43.1456 19.1161 43.2026 19.1455 43.2725 19.1455C43.3416 19.1455 43.3995 19.174 43.3995 19.2085C43.3995 19.2431 43.4858 19.2724 43.5895 19.2724C43.6948 19.2724 43.7803 19.3009 43.7803 19.3355C43.7803 19.37 43.8667 19.3994 43.9703 19.3994C44.0757 19.3994 44.1612 19.4279 44.1612 19.4624C44.1612 19.497 44.276 19.5263 44.4151 19.5263C44.555 19.5263 44.669 19.5548 44.669 19.5894C44.669 19.6239 44.7838 19.6533 44.9229 19.6533C45.0628 19.6533 45.1768 19.6818 45.1768 19.7163C45.1768 19.7509 45.3201 19.7802 45.4946 19.7802C45.669 19.7802 45.8124 19.8087 45.8124 19.8433C45.8124 19.8839 46.4048 19.9072 47.4627 19.9072C48.5206 19.9072 49.113 19.8839 49.113 19.8433C49.113 19.8087 49.2832 19.7802 49.4939 19.7802C49.7063 19.7802 49.8756 19.7517 49.8756 19.7163C49.8756 19.6818 49.9896 19.6533 50.1295 19.6533C50.2685 19.6533 50.3834 19.6248 50.3834 19.5894C50.3834 19.5548 50.4974 19.5263 50.6373 19.5263C50.7763 19.5263 50.8912 19.4978 50.8912 19.4624C50.8912 19.4279 50.9775 19.3994 51.0812 19.3994C51.1865 19.3994 51.2712 19.3709 51.2712 19.3355C51.2712 19.3009 51.3575 19.2724 51.4629 19.2724C51.5665 19.2724 51.6529 19.2439 51.6529 19.2085C51.6529 19.174 51.7392 19.1455 51.8429 19.1455C51.9482 19.1455 52.0337 19.117 52.0337 19.0816C52.0337 19.047 52.0907 19.0185 52.1607 19.0185C52.2306 19.0185 52.2876 18.9892 52.2876 18.9546C52.2876 18.9201 52.3446 18.8916 52.4146 18.8916C52.4845 18.8916 52.5415 18.8622 52.5415 18.8277C52.5415 18.7931 52.5985 18.7646 52.6685 18.7646C52.7384 18.7646 52.7954 18.7353 52.7954 18.7007C52.7954 18.6662 52.8533 18.6377 52.9223 18.6377C52.9923 18.6377 53.0493 18.6083 53.0493 18.5738C53.0493 18.5392 53.1011 18.5107 53.1624 18.5107C53.2246 18.5107 53.317 18.4529 53.3671 18.3829C53.4172 18.3138 53.5096 18.256 53.5718 18.256C53.6339 18.256 53.684 18.2275 53.684 18.1929C53.684 18.1584 53.7359 18.129 53.7972 18.129C53.8593 18.129 53.9518 18.072 54.0018 18.0021C54.0519 17.933 54.1331 17.8751 54.1806 17.8751C54.229 17.8751 54.3481 17.7896 54.4466 17.6851C54.5442 17.5798 54.6564 17.4952 54.6962 17.4952C54.8033 17.4952 55.3352 16.9407 55.3352 16.8302C55.3352 16.7766 55.3067 16.7326 55.2713 16.7326C55.2368 16.7326 55.2083 16.6868 55.2083 16.6316C55.2083 16.5754 55.1219 16.4502 55.0183 16.3518C54.9129 16.2542 54.8274 16.1393 54.8274 16.0979C54.8274 16.0555 54.7411 15.9424 54.6374 15.844C54.5321 15.7464 54.4466 15.6263 54.4466 15.5788C54.4466 15.5305 54.3896 15.4493 54.3196 15.3992C54.2497 15.3491 54.1927 15.2636 54.1927 15.2092C54.1927 15.1548 54.1357 15.0693 54.0658 15.0192C53.9958 14.9674 53.9388 14.8897 53.9388 14.8439C53.9388 14.7981 53.8378 14.6591 53.7143 14.5356L53.4897 14.3111L53.3084 14.5063C53.2073 14.6133 53.0864 14.7014 53.0381 14.7014C52.9897 14.7014 52.9094 14.7584 52.8593 14.8284C52.8083 14.8975 52.7229 14.9553 52.6693 14.9553C52.614 14.9553 52.5285 15.0123 52.4785 15.0823C52.4275 15.1514 52.336 15.2092 52.2738 15.2092C52.2116 15.2092 52.1615 15.2377 52.1615 15.2723C52.1615 15.3068 52.1037 15.3362 52.0337 15.3362C51.9646 15.3362 51.9068 15.3647 51.9068 15.3992C51.9068 15.4338 51.8498 15.4631 51.7798 15.4631C51.7107 15.4631 51.6529 15.4916 51.6529 15.5262C51.6529 15.5607 51.5959 15.5901 51.5259 15.5901C51.4568 15.5901 51.399 15.6186 51.399 15.6531C51.399 15.6876 51.342 15.717 51.272 15.717C51.2029 15.717 51.1451 15.7455 51.1451 15.7801C51.1451 15.8146 51.0881 15.844 51.0181 15.844C50.9482 15.844 50.8912 15.8725 50.8912 15.907C50.8912 15.9415 50.8342 15.9709 50.7642 15.9709C50.6943 15.9709 50.6373 15.9994 50.6373 16.0339C50.6373 16.0685 50.5509 16.0979 50.4473 16.0979C50.3419 16.0979 50.2564 16.1264 50.2564 16.1609C50.2564 16.1954 50.1701 16.2248 50.0664 16.2248C49.9611 16.2248 49.8756 16.2533 49.8756 16.2878C49.8756 16.3224 49.7607 16.3518 49.6217 16.3518C49.4818 16.3518 49.3678 16.3803 49.3678 16.4148C49.3678 16.4493 49.2244 16.4787 49.05 16.4787C48.8755 16.4787 48.7322 16.5072 48.7322 16.5417C48.7322 16.5823 48.309 16.6056 47.5896 16.6056C46.8703 16.6056 46.4471 16.5823 46.4471 16.5426C46.4471 16.5081 46.3038 16.4787 46.1293 16.4787C45.9549 16.4787 45.8124 16.4502 45.8124 16.4148C45.8124 16.3803 45.726 16.3518 45.6224 16.3518C45.517 16.3518 45.4315 16.3233 45.4315 16.2887C45.4315 16.2533 45.3452 16.2248 45.2407 16.2248C45.1362 16.2248 45.0507 16.1963 45.0507 16.1609C45.0507 16.1264 44.9928 16.0979 44.9229 16.0979C44.8538 16.0979 44.7959 16.0694 44.7959 16.0339C44.7959 15.9994 44.7389 15.9709 44.669 15.9709C44.5999 15.9709 44.542 15.9424 44.542 15.907C44.542 15.8725 44.485 15.844 44.4151 15.844C44.346 15.844 44.2881 15.8155 44.2881 15.7801C44.2881 15.7455 44.2372 15.717 44.1759 15.717C44.1128 15.717 44.0213 15.66 43.9712 15.5901C43.9202 15.5201 43.8399 15.4631 43.7916 15.4631C43.7441 15.4631 43.624 15.3768 43.5264 15.2731C43.4288 15.1678 43.3166 15.0823 43.276 15.0823C43.1836 15.0823 42.7647 14.6634 42.7647 14.571C42.7647 14.5322 42.6507 14.3905 42.5108 14.2567C42.3709 14.1228 42.2569 13.9743 42.2569 13.9268C42.2569 13.8793 42.1999 13.799 42.13 13.7489C42.06 13.6988 42.003 13.6124 42.003 13.5589C42.003 13.5036 41.9461 13.4181 41.8761 13.368C41.8061 13.3179 41.7492 13.2255 41.7492 13.1634C41.7492 13.1012 41.7207 13.0511 41.6852 13.0511C41.6507 13.0511 41.6222 12.9647 41.6222 12.8602C41.6222 12.7549 41.5937 12.6702 41.5583 12.6702C41.5238 12.6702 41.4953 12.5839 41.4953 12.4794C41.4953 12.374 41.4668 12.2885 41.4314 12.2885C41.3968 12.2885 41.3683 12.2022 41.3683 12.0985C41.3683 11.9932 41.3398 11.9077 41.3044 11.9077C41.2699 11.9077 41.2414 11.7652 41.2414 11.5899C41.2414 11.4154 41.2129 11.2729 41.1775 11.2729C41.1377 11.2729 41.1135 10.8705 41.1135 10.1935C41.1135 9.5164 41.1377 9.11396 41.1775 9.11396C41.212 9.11396 41.2414 8.97147 41.2414 8.79702C41.2414 8.62258 41.2699 8.47922 41.3044 8.47922C41.3389 8.47922 41.3683 8.39286 41.3683 8.28923C41.3683 8.18387 41.3968 8.09837 41.4314 8.09837C41.4659 8.09837 41.4953 8.01201 41.4953 7.90838C41.4953 7.80302 41.5238 7.71753 41.5583 7.71753C41.5928 7.71753 41.6222 7.66053 41.6222 7.59058C41.6222 7.52063 41.6507 7.46363 41.6852 7.46363C41.7198 7.46363 41.7492 7.40663 41.7492 7.33668C41.7492 7.26673 41.7776 7.20973 41.8122 7.20973C41.8467 7.20973 41.8761 7.15792 41.8761 7.0966C41.8761 7.03442 41.9331 6.94288 42.003 6.89193C42.0721 6.84184 42.13 6.75635 42.13 6.70194C42.13 6.64753 42.187 6.56117 42.2569 6.51195C42.326 6.46013 42.3839 6.38241 42.3839 6.3375C42.3839 6.23042 43.4366 5.17769 43.5437 5.17769C43.5886 5.17769 43.6663 5.1207 43.7164 5.05075C43.7674 4.98166 43.8529 4.9238 43.9073 4.9238C43.9617 4.9238 44.0472 4.8668 44.0973 4.79685C44.1482 4.72776 44.2406 4.6699 44.3019 4.6699C44.3641 4.6699 44.4151 4.6414 44.4151 4.60686C44.4151 4.57231 44.4729 4.54295 44.542 4.54295C44.612 4.54295 44.669 4.51445 44.669 4.47991C44.669 4.44537 44.726 4.416 44.7959 4.416C44.8659 4.416 44.9229 4.38751 44.9229 4.35296C44.9229 4.31842 44.9807 4.28906 45.0507 4.28906C45.1198 4.28906 45.1768 4.26056 45.1768 4.22601C45.1768 4.19147 45.2631 4.16211 45.3676 4.16211C45.4721 4.16211 45.5576 4.13361 45.5576 4.09906C45.5576 4.06452 45.701 4.03516 45.8754 4.03516C46.0499 4.03516 46.1932 4.00666 46.1932 3.97212C46.1932 3.93584 46.3832 3.90821 46.6371 3.90821C46.891 3.90821 47.0819 3.88144 47.0819 3.84517C47.0819 3.80717 47.315 3.78126 47.6536 3.78126C47.9921 3.78126 48.2244 3.80717 48.2244 3.84517C48.2244 3.88144 48.4144 3.90821 48.6691 3.90821C48.923 3.90821 49.113 3.93584 49.113 3.97212C49.113 4.00666 49.2279 4.03516 49.3669 4.03516C49.5068 4.03516 49.6217 4.06366 49.6217 4.09906C49.6217 4.13361 49.7072 4.16211 49.8117 4.16211C49.9162 4.16211 50.0017 4.19061 50.0017 4.22601C50.0017 4.26056 50.088 4.28906 50.1925 4.28906C50.297 4.28906 50.3825 4.31755 50.3825 4.35296C50.3825 4.38751 50.4404 4.416 50.5103 4.416C50.5794 4.416 50.6373 4.4445 50.6373 4.47991C50.6373 4.51445 50.6943 4.54295 50.7642 4.54295C50.8333 4.54295 50.8912 4.57145 50.8912 4.60686C50.8912 4.6414 50.9421 4.6699 51.0034 4.6699C51.0665 4.6699 51.1589 4.7269 51.2081 4.79685C51.2591 4.8668 51.3446 4.9238 51.399 4.9238C51.4534 4.9238 51.5389 4.98079 51.589 5.05075C51.6399 5.1207 51.7194 5.17769 51.7669 5.17769C51.8144 5.17769 51.9629 5.29255 52.0976 5.43159C52.2315 5.57149 52.3748 5.68549 52.4163 5.68549C52.4569 5.68549 52.5709 5.77185 52.6685 5.87634C52.7669 5.98084 52.8783 6.06633 52.918 6.06633C52.9569 6.06633 53.4163 5.63799 53.9388 5.11465C54.4604 4.59045 54.919 4.16211 54.9578 4.16211C55.0597 4.16211 55.2083 3.99543 55.2083 3.88144C55.2083 3.82617 55.1798 3.78126 55.1444 3.78126C55.1098 3.78126 55.0813 3.73808 55.0813 3.68454C55.0813 3.57486 54.4224 2.89262 54.3153 2.89262C54.2773 2.89262 54.1357 2.77776 54.0018 2.63872C53.868 2.49882 53.7246 2.38483 53.6832 2.38483C53.6417 2.38483 53.5277 2.29847 53.431 2.19484C53.3326 2.08948 53.2065 2.00398 53.1512 2.00398C53.0951 2.00398 53.0493 1.97462 53.0493 1.94008C53.0493 1.90553 52.9983 1.87703 52.937 1.87703C52.8748 1.87703 52.7824 1.81917 52.7324 1.75008C52.6823 1.68013 52.5899 1.62227 52.5277 1.62227C52.4655 1.62227 52.4154 1.59377 52.4154 1.55923C52.4154 1.52469 52.3576 1.49532 52.2876 1.49532C52.2185 1.49532 52.1607 1.46683 52.1607 1.43228C52.1607 1.39774 52.1037 1.36838 52.0337 1.36838C51.9646 1.36838 51.9068 1.33988 51.9068 1.30533C51.9068 1.27079 51.8204 1.24143 51.7168 1.24143C51.6114 1.24143 51.5259 1.21293 51.5259 1.17838C51.5259 1.14384 51.4396 1.11448 51.3359 1.11448C51.2306 1.11448 51.1451 1.08598 51.1451 1.05144C51.1451 1.01689 51.0587 0.98753 50.9551 0.98753C50.8497 0.98753 50.7642 0.959032 50.7642 0.924488C50.7642 0.889944 50.6494 0.860582 50.5103 0.860582C50.3704 0.860582 50.2564 0.832083 50.2564 0.797539C50.2564 0.762996 50.1416 0.733633 50.0025 0.733633C49.8626 0.733633 49.7486 0.705135 49.7486 0.670591C49.7486 0.633456 49.5371 0.606685 49.2408 0.606685C48.9438 0.606685 48.7322 0.580777 48.7322 0.543642C48.7322 0.503053 48.309 0.479736 47.5896 0.479736C46.8703 0.479736 46.4471 0.503053 46.4471 0.543642ZM66.5084 0.543642C66.5084 0.580777 66.2968 0.606685 66.0006 0.606685C65.7044 0.606685 65.4928 0.632593 65.4928 0.670591C65.4928 0.705135 65.3503 0.733633 65.1759 0.733633C65.0014 0.733633 64.8581 0.762132 64.8581 0.797539C64.8581 0.832083 64.7717 0.860582 64.6681 0.860582C64.5627 0.860582 64.4781 0.88908 64.4781 0.924488C64.4781 0.959032 64.3633 0.98753 64.2234 0.98753C64.0835 0.98753 63.9695 1.01603 63.9695 1.05144C63.9695 1.08598 63.8831 1.11448 63.7795 1.11448C63.6741 1.11448 63.5886 1.14298 63.5886 1.17838C63.5886 1.21293 63.5316 1.24143 63.4617 1.24143C63.3917 1.24143 63.3347 1.26993 63.3347 1.30533C63.3347 1.33988 63.2484 1.36838 63.1447 1.36838C63.0394 1.36838 62.9539 1.39774 62.9539 1.43228C62.9539 1.46683 62.8969 1.49532 62.8269 1.49532C62.757 1.49532 62.7 1.52469 62.7 1.55923C62.7 1.59377 62.6421 1.62227 62.573 1.62227C62.5031 1.62227 62.4461 1.65164 62.4461 1.68618C62.4461 1.72072 62.3943 1.75008 62.3329 1.75008C62.2708 1.75008 62.1784 1.80708 62.1283 1.87703C62.0782 1.94612 61.9858 2.00398 61.9236 2.00398C61.8614 2.00398 61.8113 2.03248 61.8113 2.06702C61.8113 2.10157 61.7656 2.13093 61.7094 2.13093C61.6533 2.13093 61.5281 2.21643 61.4296 2.32092C61.332 2.42542 61.218 2.51091 61.1757 2.51091C61.1343 2.51091 61.0203 2.59727 60.9218 2.70177C60.8242 2.80713 60.712 2.89176 60.6731 2.89176C60.5807 2.89176 59.6523 3.82099 59.6523 3.91339C59.6523 3.95225 59.566 4.06452 59.4624 4.16211C59.357 4.25969 59.2715 4.37455 59.2715 4.416C59.2715 4.45832 59.1851 4.57145 59.0815 4.6699C58.9761 4.76835 58.8906 4.88753 58.8906 4.93589C58.8906 4.98339 58.8336 5.06456 58.7637 5.11465C58.6937 5.16474 58.6368 5.25715 58.6368 5.31932C58.6368 5.3815 58.6083 5.43159 58.5728 5.43159C58.5383 5.43159 58.5098 5.48945 58.5098 5.55854C58.5098 5.62849 58.4813 5.68549 58.4459 5.68549C58.4114 5.68549 58.3829 5.77185 58.3829 5.87634C58.3829 5.98084 58.3544 6.06633 58.3189 6.06633C58.2844 6.06633 58.2559 6.1242 58.2559 6.19415C58.2559 6.26323 58.2265 6.32109 58.192 6.32109C58.1575 6.32109 58.129 6.40659 58.129 6.51109C58.129 6.61558 58.0996 6.70108 58.0651 6.70108C58.0305 6.70108 58.002 6.75894 58.002 6.82889C58.002 6.89798 57.9735 6.95584 57.9381 6.95584C57.9036 6.95584 57.8751 7.06983 57.8751 7.20973C57.8751 7.34964 57.8457 7.46363 57.8112 7.46363C57.7766 7.46363 57.7473 7.54999 57.7473 7.65362C57.7473 7.75898 57.7188 7.84448 57.6842 7.84448C57.6497 7.84448 57.6212 7.98697 57.6212 8.16228C57.6212 8.33673 57.5918 8.47922 57.5573 8.47922C57.5167 8.47922 57.4934 9.09237 57.4934 10.1935C57.4934 11.2937 57.5167 11.9077 57.5573 11.9077C57.5918 11.9077 57.6212 12.0502 57.6212 12.2246C57.6212 12.3999 57.6488 12.5424 57.6842 12.5424C57.7188 12.5424 57.7473 12.6288 57.7473 12.7324C57.7473 12.8378 57.7766 12.9233 57.8112 12.9233C57.8457 12.9233 57.8742 13.0381 57.8742 13.1772C57.8742 13.3171 57.9036 13.4311 57.9381 13.4311C57.9727 13.4311 58.002 13.5174 58.002 13.6211C58.002 13.7264 58.0305 13.8119 58.0651 13.8119C58.0996 13.8119 58.129 13.8983 58.129 14.0019C58.129 14.1073 58.1575 14.1928 58.192 14.1928C58.2265 14.1928 58.2559 14.2506 58.2559 14.3206C58.2559 14.3897 58.2844 14.4467 58.3189 14.4467C58.3535 14.4467 58.3829 14.5045 58.3829 14.5745C58.3829 14.6436 58.4114 14.7014 58.4459 14.7014C58.4804 14.7014 58.5098 14.7584 58.5098 14.8284C58.5098 14.8975 58.5383 14.9553 58.5728 14.9553C58.6074 14.9553 58.6368 15.0063 58.6368 15.0676C58.6368 15.1298 58.6937 15.2222 58.7637 15.2723C58.8328 15.3232 58.8906 15.4148 58.8906 15.4769C58.8906 15.5391 58.9191 15.5892 58.9537 15.5892C58.9882 15.5892 59.0176 15.6358 59.0176 15.6911C59.0176 15.7472 59.1031 15.8725 59.2076 15.9709C59.3129 16.0685 59.3976 16.1808 59.3976 16.2188C59.3976 16.3112 60.8355 17.7482 60.9279 17.7482C60.9667 17.7482 61.0781 17.8345 61.1757 17.9382C61.2742 18.0435 61.3933 18.129 61.4417 18.129C61.4892 18.129 61.5704 18.1869 61.6205 18.256C61.6706 18.3259 61.763 18.3829 61.8251 18.3829C61.8873 18.3829 61.9374 18.4123 61.9374 18.4468C61.9374 18.4814 61.9892 18.5099 62.0505 18.5099C62.1127 18.5099 62.2051 18.5677 62.2552 18.6368C62.3053 18.7068 62.3977 18.7646 62.4599 18.7646C62.5221 18.7646 62.5722 18.7931 62.5722 18.8277C62.5722 18.8622 62.63 18.8916 62.7 18.8916C62.7691 18.8916 62.8269 18.9201 62.8269 18.9546C62.8269 18.9892 62.9124 19.0185 63.0169 19.0185C63.1214 19.0185 63.2069 19.047 63.2069 19.0816C63.2069 19.1161 63.2648 19.1455 63.3347 19.1455C63.4038 19.1455 63.4617 19.174 63.4617 19.2085C63.4617 19.2431 63.548 19.2724 63.6516 19.2724C63.757 19.2724 63.8416 19.3009 63.8416 19.3355C63.8416 19.37 63.928 19.3994 64.0334 19.3994C64.137 19.3994 64.2234 19.4279 64.2234 19.4624C64.2234 19.497 64.3373 19.5263 64.4772 19.5263C64.6171 19.5263 64.7311 19.5548 64.7311 19.5894C64.7311 19.6239 64.846 19.6533 64.985 19.6533C65.1249 19.6533 65.2389 19.6818 65.2389 19.7163C65.2389 19.7509 65.3823 19.7802 65.5567 19.7802C65.7312 19.7802 65.8737 19.8087 65.8737 19.8433C65.8737 19.8847 66.4877 19.9072 67.5879 19.9072C68.689 19.9072 69.3022 19.8847 69.3022 19.8433C69.3022 19.8087 69.4455 19.7802 69.62 19.7802C69.7944 19.7802 69.9369 19.7517 69.9369 19.7163C69.9369 19.6818 70.0518 19.6533 70.1908 19.6533C70.3307 19.6533 70.4447 19.6248 70.4447 19.5894C70.4447 19.5548 70.5595 19.5263 70.6995 19.5263C70.8385 19.5263 70.9533 19.4978 70.9533 19.4624C70.9533 19.4279 71.0388 19.3994 71.1433 19.3994C71.2487 19.3994 71.3333 19.3709 71.3333 19.3355C71.3333 19.3009 71.4197 19.2724 71.5242 19.2724C71.6295 19.2724 71.7142 19.2439 71.7142 19.2085C71.7142 19.174 71.8005 19.1455 71.905 19.1455C72.0104 19.1455 72.095 19.117 72.095 19.0816C72.095 19.047 72.1529 19.0185 72.2228 19.0185C72.2919 19.0185 72.3498 18.9892 72.3498 18.9546C72.3498 18.9201 72.4068 18.8916 72.4767 18.8916C72.5458 18.8916 72.6037 18.8622 72.6037 18.8277C72.6037 18.7931 72.6546 18.7646 72.716 18.7646C72.779 18.7646 72.8714 18.7068 72.9215 18.6368C72.9716 18.5677 73.0631 18.5107 73.1253 18.5107C73.1875 18.5107 73.2384 18.4814 73.2384 18.4468C73.2384 18.4123 73.2902 18.3829 73.3516 18.3829C73.4137 18.3829 73.5053 18.3259 73.5562 18.256C73.6063 18.1869 73.6866 18.129 73.735 18.129C73.7833 18.129 73.9025 18.0435 74.0001 17.939C74.0986 17.8345 74.21 17.7491 74.2488 17.7491C74.3404 17.7491 75.6513 16.439 75.6513 16.3474C75.6513 16.3094 75.7653 16.1687 75.9052 16.0339C76.0451 15.9001 76.1591 15.7455 76.1591 15.6902C76.1591 15.635 76.1876 15.5901 76.2221 15.5901C76.2567 15.5901 76.286 15.5382 76.286 15.4769C76.286 15.4148 76.343 15.3232 76.413 15.2723C76.4821 15.2222 76.5399 15.1298 76.5399 15.0676C76.5399 15.0063 76.5684 14.9553 76.603 14.9553C76.6375 14.9553 76.6669 14.8983 76.6669 14.8284C76.6669 14.7584 76.6954 14.7014 76.7308 14.7014C76.7653 14.7014 76.7938 14.6436 76.7938 14.5745C76.7938 14.5045 76.8223 14.4467 76.8569 14.4467C76.8923 14.4467 76.9208 14.3612 76.9208 14.2567C76.9208 14.1522 76.9493 14.0667 76.9847 14.0667C77.0192 14.0667 77.0477 14.0088 77.0477 13.9389C77.0477 13.8698 77.0762 13.8119 77.1116 13.8119C77.1462 13.8119 77.1747 13.7264 77.1747 13.6219C77.1747 13.5174 77.2032 13.4319 77.2386 13.4319C77.2731 13.4319 77.3016 13.3456 77.3016 13.2411C77.3016 13.1357 77.3301 13.0511 77.3655 13.0511C77.4001 13.0511 77.4286 12.9362 77.4286 12.7963C77.4286 12.6564 77.4571 12.5424 77.4925 12.5424C77.527 12.5424 77.5555 12.3999 77.5555 12.2255C77.5555 12.0502 77.584 11.9077 77.6194 11.9077C77.66 11.9077 77.6825 11.3153 77.6825 10.2565C77.6825 9.19859 77.66 8.60703 77.6194 8.60703C77.584 8.60703 77.5555 8.4369 77.5555 8.22532C77.5555 8.01374 77.5279 7.84448 77.4925 7.84448C77.4579 7.84448 77.4286 7.73048 77.4286 7.59058C77.4286 7.45068 77.4001 7.33668 77.3655 7.33668C77.331 7.33668 77.3016 7.25032 77.3016 7.14669C77.3016 7.04133 77.2731 6.95584 77.2386 6.95584C77.204 6.95584 77.1747 6.89884 77.1747 6.82889C77.1747 6.75894 77.1462 6.70194 77.1116 6.70194C77.0771 6.70194 77.0477 6.61558 77.0477 6.51195C77.0477 6.40659 77.0192 6.32109 76.9847 6.32109C76.9502 6.32109 76.9208 6.26323 76.9208 6.19415C76.9208 6.1242 76.8923 6.0672 76.8569 6.0672C76.8223 6.0672 76.7938 6.00934 76.7938 5.94025C76.7938 5.8703 76.7653 5.81244 76.7308 5.81244C76.6963 5.81244 76.6669 5.75544 76.6669 5.68549C76.6669 5.6164 76.6384 5.55854 76.6039 5.55854C76.5684 5.55854 76.5399 5.50154 76.5399 5.43159C76.5399 5.3625 76.5114 5.30464 76.476 5.30464C76.4415 5.30464 76.413 5.24765 76.413 5.17769C76.413 5.10861 76.3845 5.05075 76.3491 5.05075C76.3146 5.05075 76.286 5.00498 76.286 4.94971C76.286 4.89357 76.1997 4.76835 76.0961 4.6699C75.9907 4.57231 75.9052 4.45918 75.9052 4.41859C75.9052 4.37801 75.7618 4.20529 75.5874 4.03516C75.413 3.86503 75.2705 3.6949 75.2705 3.6569C75.2705 3.56623 74.5951 2.89262 74.5036 2.89262C74.4639 2.89262 74.3525 2.80626 74.254 2.70263C74.1564 2.59727 74.0372 2.51178 73.9889 2.51178C73.9405 2.51178 73.8602 2.45478 73.8101 2.38483C73.76 2.31488 73.6737 2.25788 73.6201 2.25788C73.5649 2.25788 73.4794 2.20002 73.4293 2.13093C73.3783 2.06098 73.2928 2.00398 73.2393 2.00398C73.184 2.00398 73.0985 1.94612 73.0484 1.87703C72.9975 1.80708 72.9059 1.75008 72.8438 1.75008C72.7816 1.75008 72.7306 1.72072 72.7306 1.68618C72.7306 1.65164 72.6736 1.62227 72.6037 1.62227C72.5346 1.62227 72.4767 1.59377 72.4767 1.55923C72.4767 1.52469 72.4197 1.49532 72.3498 1.49532C72.2807 1.49532 72.2228 1.46683 72.2228 1.43228C72.2228 1.39774 72.1365 1.36838 72.0328 1.36838C71.9275 1.36838 71.842 1.33988 71.842 1.30533C71.842 1.27079 71.785 1.24143 71.715 1.24143C71.6451 1.24143 71.5881 1.21293 71.5881 1.17838C71.5881 1.14384 71.5017 1.11448 71.3981 1.11448C71.2927 1.11448 71.2072 1.08598 71.2072 1.05144C71.2072 1.01689 71.0924 0.98753 70.9533 0.98753C70.8134 0.98753 70.6995 0.959032 70.6995 0.924488C70.6995 0.889944 70.6131 0.860582 70.5086 0.860582C70.4041 0.860582 70.3186 0.832083 70.3186 0.797539C70.3186 0.762996 70.1752 0.733633 70.0008 0.733633C69.8264 0.733633 69.683 0.705135 69.683 0.670591C69.683 0.633456 69.4714 0.606685 69.1752 0.606685C68.879 0.606685 68.6674 0.580777 68.6674 0.543642C68.6674 0.503917 68.265 0.479736 67.5879 0.479736C66.9109 0.479736 66.5084 0.503917 66.5084 0.543642ZM86.4436 0.543642C86.4436 0.579913 86.2537 0.606685 85.9998 0.606685C85.7459 0.606685 85.555 0.63432 85.555 0.670591C85.555 0.705135 85.4125 0.733633 85.2381 0.733633C85.0628 0.733633 84.9203 0.762132 84.9203 0.797539C84.9203 0.832083 84.8339 0.860582 84.7303 0.860582C84.6249 0.860582 84.5394 0.88908 84.5394 0.924488C84.5394 0.959032 84.4531 0.98753 84.3494 0.98753C84.2441 0.98753 84.1586 1.01603 84.1586 1.05144C84.1586 1.08598 84.1016 1.11448 84.0316 1.11448C83.9617 1.11448 83.9047 1.14298 83.9047 1.17838C83.9047 1.21293 83.8183 1.24143 83.7147 1.24143C83.6093 1.24143 83.5238 1.26993 83.5238 1.30533C83.5238 1.33988 83.472 1.36838 83.4107 1.36838C83.3485 1.36838 83.2561 1.42624 83.206 1.49532C83.1559 1.56528 83.0704 1.62227 83.016 1.62227C82.9616 1.62227 82.8753 1.68013 82.8252 1.75008C82.7751 1.81917 82.6965 1.87703 82.6516 1.87703C82.6058 1.87703 82.3554 2.09034 82.0937 2.35201C81.8329 2.61282 81.6188 2.86412 81.6188 2.90903C81.6188 2.9548 81.5617 3.03252 81.4918 3.08261C81.4227 3.13356 81.3649 3.21906 81.3649 3.2726C81.3649 3.32787 81.3079 3.41337 81.2379 3.46346C81.1688 3.51441 81.111 3.60595 81.111 3.66813C81.111 3.73031 81.0825 3.78126 81.0479 3.78126C81.0134 3.78126 80.984 3.86762 80.984 3.97125C80.984 4.07661 80.9555 4.16211 80.9201 4.16211C80.8856 4.16211 80.8571 4.24847 80.8571 4.3521C80.8571 4.45746 80.8286 4.54295 80.794 4.54295C80.7586 4.54295 80.7301 4.65781 80.7301 4.79685C80.7301 4.93675 80.7016 5.05075 80.6662 5.05075C80.6273 5.05075 80.6032 5.43159 80.6032 6.0672C80.6032 6.70194 80.6273 7.08279 80.6662 7.08279C80.7008 7.08279 80.7301 7.19678 80.7301 7.33668C80.7301 7.47658 80.7586 7.59058 80.7932 7.59058C80.8277 7.59058 80.8571 7.67694 80.8571 7.78057C80.8571 7.88593 80.8856 7.97142 80.9201 7.97142C80.9546 7.97142 80.984 8.02238 80.984 8.08369C80.984 8.14673 81.041 8.23914 81.111 8.28923C81.18 8.33932 81.2379 8.41963 81.2379 8.46799C81.2379 8.51635 81.3243 8.63553 81.4279 8.73312C81.5332 8.83156 81.6188 8.94297 81.6188 8.98269C81.6188 9.08201 82.1689 9.62176 82.2699 9.62176C82.3157 9.62176 82.3943 9.67962 82.4443 9.7487C82.4944 9.81866 82.5799 9.87565 82.6343 9.87565C82.6887 9.87565 82.7751 9.93351 82.8252 10.0026C82.8753 10.0726 82.9677 10.1295 83.0299 10.1295C83.092 10.1295 83.1421 10.1589 83.1421 10.1935C83.1421 10.228 83.2 10.2574 83.2699 10.2574C83.339 10.2574 83.3969 10.2859 83.3969 10.3204C83.3969 10.3549 83.4539 10.3843 83.5238 10.3843C83.5929 10.3843 83.6508 10.4128 83.6508 10.4474C83.6508 10.4819 83.7078 10.5113 83.7777 10.5113C83.8468 10.5113 83.9047 10.5398 83.9047 10.5743C83.9047 10.6088 83.9617 10.6382 84.0316 10.6382C84.1007 10.6382 84.1586 10.6667 84.1586 10.7012C84.1586 10.7358 84.2441 10.7652 84.3486 10.7652C84.4539 10.7652 84.5386 10.7937 84.5386 10.8282C84.5386 10.8627 84.6249 10.8921 84.7294 10.8921C84.8348 10.8921 84.9194 10.9206 84.9194 10.9551C84.9194 10.9897 85.0058 11.0191 85.1103 11.0191C85.2156 11.0191 85.3011 11.0476 85.3011 11.0821C85.3011 11.1166 85.3875 11.146 85.4911 11.146C85.5965 11.146 85.682 11.1745 85.682 11.209C85.682 11.2436 85.7683 11.2729 85.872 11.2729C85.9773 11.2729 86.0628 11.3014 86.0628 11.336C86.0628 11.3705 86.1483 11.3999 86.2537 11.3999C86.3582 11.3999 86.4436 11.4284 86.4436 11.4629C86.4436 11.4975 86.53 11.5268 86.6345 11.5268C86.739 11.5268 86.8245 11.5553 86.8245 11.5899C86.8245 11.6244 86.9109 11.6538 87.0154 11.6538C87.1199 11.6538 87.2053 11.6823 87.2053 11.7168C87.2053 11.7514 87.2917 11.7807 87.3962 11.7807C87.5007 11.7807 87.5871 11.8092 87.5871 11.8438C87.5871 11.8783 87.6725 11.9077 87.777 11.9077C87.8815 11.9077 87.9679 11.9362 87.9679 11.9707C87.9679 12.0053 88.0534 12.0346 88.1579 12.0346C88.2633 12.0346 88.3487 12.0631 88.3487 12.0977C88.3487 12.1322 88.4342 12.1616 88.5387 12.1616C88.6441 12.1616 88.7296 12.1901 88.7296 12.2246C88.7296 12.2592 88.7866 12.2885 88.8565 12.2885C88.9265 12.2885 88.9835 12.317 88.9835 12.3524C88.9835 12.387 89.069 12.4155 89.1735 12.4155C89.2788 12.4155 89.3643 12.444 89.3643 12.4794C89.3643 12.5139 89.4153 12.5424 89.4775 12.5424C89.5396 12.5424 89.6312 12.5994 89.6821 12.6694C89.7322 12.7393 89.8108 12.7963 89.8557 12.7963C89.9714 12.7963 90.6338 13.4708 90.6338 13.5891C90.6338 13.6418 90.6623 13.685 90.6977 13.685C90.7323 13.685 90.7608 13.7713 90.7608 13.875C90.7608 13.9803 90.7893 14.0658 90.8247 14.0658C90.8609 14.0658 90.8877 14.2567 90.8877 14.5106C90.8877 14.7645 90.8609 14.9553 90.8247 14.9553C90.7893 14.9553 90.7608 15.0408 90.7608 15.1453C90.7608 15.2498 90.7323 15.3353 90.6977 15.3353C90.6623 15.3353 90.6338 15.3871 90.6338 15.4484C90.6338 15.5115 90.5768 15.603 90.5069 15.6531C90.4369 15.7041 90.3799 15.7835 90.3799 15.831C90.3799 15.9415 90.2236 16.0979 90.1131 16.0979C90.0656 16.0979 89.9861 16.1549 89.936 16.2248C89.8851 16.2939 89.7935 16.3518 89.7314 16.3518C89.6692 16.3518 89.6182 16.3803 89.6182 16.4148C89.6182 16.4493 89.5327 16.4787 89.4282 16.4787C89.3229 16.4787 89.2374 16.5072 89.2374 16.5417C89.2374 16.5772 89.1234 16.6056 88.9835 16.6056C88.8436 16.6056 88.7296 16.6341 88.7296 16.6696C88.7296 16.705 88.5387 16.7326 88.2848 16.7326C88.0309 16.7326 87.841 16.7602 87.841 16.7965C87.841 16.8328 87.6501 16.8595 87.3962 16.8595C87.1423 16.8595 86.9515 16.8328 86.9515 16.7965C86.9515 16.7585 86.7191 16.7326 86.3806 16.7326C86.0421 16.7326 85.8089 16.7067 85.8089 16.6696C85.8089 16.635 85.6664 16.6056 85.492 16.6056C85.3167 16.6056 85.1742 16.5772 85.1742 16.5426C85.1742 16.5081 85.0602 16.4787 84.9203 16.4787C84.7804 16.4787 84.6664 16.4502 84.6664 16.4148C84.6664 16.3803 84.5524 16.3518 84.4125 16.3518C84.2726 16.3518 84.1586 16.3233 84.1586 16.2887C84.1586 16.2533 84.0722 16.2248 83.9686 16.2248C83.8632 16.2248 83.7777 16.1963 83.7777 16.1609C83.7777 16.1264 83.7199 16.0979 83.6508 16.0979C83.5808 16.0979 83.5238 16.0694 83.5238 16.0339C83.5238 15.9994 83.466 15.9709 83.3969 15.9709C83.3269 15.9709 83.2699 15.9424 83.2699 15.907C83.2699 15.8725 83.2121 15.844 83.143 15.844C83.073 15.844 83.0152 15.8155 83.0152 15.7801C83.0152 15.7455 82.9582 15.717 82.8882 15.717C82.8191 15.717 82.7613 15.6885 82.7613 15.6531C82.7613 15.6186 82.7043 15.5901 82.6343 15.5901C82.5653 15.5901 82.5074 15.5616 82.5074 15.5262C82.5074 15.4916 82.4504 15.4631 82.3804 15.4631C82.3113 15.4631 82.2535 15.4346 82.2535 15.3992C82.2535 15.3647 82.2025 15.3362 82.1412 15.3362C82.079 15.3362 81.9866 15.2792 81.9365 15.2092C81.8856 15.1393 81.7941 15.0823 81.7319 15.0823C81.6697 15.0823 81.6196 15.0538 81.6196 15.0184C81.6196 14.9838 81.5617 14.9553 81.4918 14.9553C81.4072 14.9553 81.3649 14.9976 81.3649 15.0823C81.3649 15.1514 81.3364 15.2092 81.3018 15.2092C81.2673 15.2092 81.2379 15.2662 81.2379 15.3362C81.2379 15.4053 81.2094 15.4631 81.1749 15.4631C81.1403 15.4631 81.111 15.5486 81.111 15.6531C81.111 15.7585 81.0825 15.8431 81.0479 15.8431C81.0134 15.8431 80.984 15.901 80.984 15.9709C80.984 16.04 80.9555 16.0979 80.9201 16.0979C80.8856 16.0979 80.8571 16.1842 80.8571 16.2878C80.8571 16.3932 80.8286 16.4787 80.794 16.4787C80.7586 16.4787 80.7301 16.5357 80.7301 16.6056C80.7301 16.6747 80.7016 16.7326 80.6662 16.7326C80.6317 16.7326 80.6032 16.819 80.6032 16.9226C80.6032 17.0279 80.5747 17.1134 80.5393 17.1134C80.5047 17.1134 80.4762 17.1998 80.4762 17.3034C80.4762 17.4088 80.4477 17.4943 80.4123 17.4943C80.3778 17.4943 80.3493 17.5807 80.3493 17.6843C80.3493 17.8173 80.3804 17.8751 80.4503 17.8751C80.5064 17.8751 80.6317 17.9615 80.7301 18.0651C80.8277 18.1705 80.9538 18.256 81.009 18.256C81.0652 18.256 81.111 18.2853 81.111 18.3199C81.111 18.3544 81.1619 18.3829 81.2232 18.3829C81.2863 18.3829 81.3787 18.4408 81.4288 18.5107C81.4788 18.5798 81.5704 18.6368 81.6326 18.6368C81.6947 18.6368 81.7457 18.6662 81.7457 18.7007C81.7457 18.7353 81.8027 18.7646 81.8726 18.7646C81.9426 18.7646 81.9996 18.7931 81.9996 18.8277C81.9996 18.8622 82.0566 18.8916 82.1265 18.8916C82.1965 18.8916 82.2535 18.9201 82.2535 18.9546C82.2535 18.9892 82.3113 19.0185 82.3804 19.0185C82.4504 19.0185 82.5074 19.047 82.5074 19.0816C82.5074 19.1161 82.5938 19.1455 82.6974 19.1455C82.8027 19.1455 82.8891 19.174 82.8891 19.2085C82.8891 19.2431 82.9746 19.2724 83.0791 19.2724C83.1836 19.2724 83.2691 19.3009 83.2691 19.3355C83.2691 19.37 83.3554 19.3994 83.4599 19.3994C83.5644 19.3994 83.6499 19.4279 83.6499 19.4624C83.6499 19.497 83.7648 19.5263 83.9047 19.5263C84.0437 19.5263 84.1586 19.5548 84.1586 19.5894C84.1586 19.6239 84.3011 19.6533 84.4755 19.6533C84.6508 19.6533 84.7933 19.6818 84.7933 19.7163C84.7933 19.7517 84.9626 19.7802 85.1742 19.7802C85.3857 19.7802 85.555 19.8079 85.555 19.8433C85.555 19.8839 86.1474 19.9072 87.2053 19.9072C88.2641 19.9072 88.8565 19.8839 88.8565 19.8433C88.8565 19.8087 89.0258 19.7802 89.2374 19.7802C89.449 19.7802 89.6182 19.7517 89.6182 19.7163C89.6182 19.6818 89.7322 19.6533 89.8721 19.6533C90.012 19.6533 90.126 19.6248 90.126 19.5894C90.126 19.5548 90.2115 19.5263 90.3169 19.5263C90.4214 19.5263 90.5069 19.4978 90.5069 19.4624C90.5069 19.4279 90.5932 19.3994 90.6977 19.3994C90.8022 19.3994 90.8877 19.3709 90.8877 19.3355C90.8877 19.3009 90.9456 19.2724 91.0147 19.2724C91.0846 19.2724 91.1416 19.2439 91.1416 19.2085C91.1416 19.174 91.228 19.1455 91.3325 19.1455C91.437 19.1455 91.5233 19.117 91.5233 19.0816C91.5233 19.047 91.5734 19.0185 91.6356 19.0185C91.6978 19.0185 91.7902 18.9607 91.8403 18.8916C91.8904 18.8216 91.9767 18.7646 92.0311 18.7646C92.0855 18.7646 92.171 18.7068 92.2211 18.6368C92.2712 18.5677 92.3524 18.5107 92.3999 18.5107C92.4482 18.5107 92.5683 18.4244 92.6659 18.3199C92.7634 18.2154 92.8757 18.1299 92.9154 18.1299C93.0087 18.1299 93.4275 17.7111 93.4275 17.6178C93.4275 17.5781 93.513 17.4649 93.6184 17.3673C93.7229 17.2698 93.8084 17.1506 93.8084 17.1022C93.8084 17.0539 93.8654 16.9727 93.9353 16.9235C94.0053 16.8725 94.0623 16.781 94.0623 16.7188C94.0623 16.6566 94.0908 16.6065 94.1262 16.6065C94.1607 16.6065 94.1892 16.5487 94.1892 16.4787C94.1892 16.4096 94.2177 16.3518 94.2531 16.3518C94.2877 16.3518 94.3162 16.2948 94.3162 16.2248C94.3162 16.1557 94.3447 16.0979 94.3801 16.0979C94.4146 16.0979 94.4431 16.0115 94.4431 15.9079C94.4431 15.8025 94.4716 15.717 94.507 15.717C94.5424 15.717 94.5701 15.5477 94.5701 15.3362C94.5701 15.1246 94.5986 14.9553 94.634 14.9553C94.672 14.9553 94.697 14.7014 94.697 14.3206C94.697 13.9389 94.672 13.685 94.634 13.685C94.5986 13.685 94.5701 13.5157 94.5701 13.305C94.5701 13.0925 94.5424 12.9233 94.507 12.9233C94.4716 12.9233 94.4431 12.8093 94.4431 12.6694C94.4431 12.5295 94.4146 12.4155 94.3801 12.4155C94.3447 12.4155 94.3162 12.3585 94.3162 12.2885C94.3162 12.2194 94.2877 12.1616 94.2531 12.1616C94.2177 12.1616 94.1892 12.1046 94.1892 12.0346C94.1892 11.9656 94.1607 11.9077 94.1262 11.9077C94.0908 11.9077 94.0623 11.8507 94.0623 11.7807C94.0623 11.7108 94.0338 11.6538 93.9992 11.6538C93.9638 11.6538 93.9353 11.6089 93.9353 11.5545C93.9353 11.5001 93.7928 11.3161 93.6184 11.146C93.4431 10.9759 93.3006 10.804 93.3006 10.7643C93.3006 10.6702 93.14 10.5113 93.045 10.5113C93.0044 10.5113 92.8904 10.4249 92.7928 10.3213C92.6952 10.2159 92.5752 10.1295 92.5277 10.1295C92.4793 10.1295 92.399 10.0726 92.3481 10.0035C92.298 9.93351 92.2056 9.87565 92.1434 9.87565C92.0821 9.87565 92.0311 9.84715 92.0311 9.81261C92.0311 9.77807 91.9733 9.7487 91.9042 9.7487C91.8342 9.7487 91.7772 9.72021 91.7772 9.68566C91.7772 9.65112 91.7194 9.62176 91.6503 9.62176C91.5803 9.62176 91.5233 9.59326 91.5233 9.55871C91.5233 9.52417 91.4655 9.49481 91.3955 9.49481C91.3264 9.49481 91.2686 9.46631 91.2686 9.43176C91.2686 9.39722 91.2116 9.36786 91.1416 9.36786C91.0725 9.36786 91.0147 9.33936 91.0147 9.30482C91.0147 9.27027 90.9292 9.24091 90.8247 9.24091C90.7202 9.24091 90.6338 9.21241 90.6338 9.17787C90.6338 9.14332 90.5483 9.11396 90.4438 9.11396C90.3385 9.11396 90.253 9.08546 90.253 9.05092C90.253 9.01637 90.196 8.98701 90.126 8.98701C90.0561 8.98701 89.9991 8.95851 89.9991 8.92397C89.9991 8.88943 89.9136 8.86006 89.8091 8.86006C89.7037 8.86006 89.6182 8.83157 89.6182 8.79702C89.6182 8.76248 89.5327 8.73312 89.4282 8.73312C89.3229 8.73312 89.2374 8.70462 89.2374 8.67007C89.2374 8.63553 89.1519 8.60617 89.0465 8.60617C88.942 8.60617 88.8565 8.57767 88.8565 8.54313C88.8565 8.50858 88.7425 8.47922 88.6026 8.47922C88.4627 8.47922 88.3487 8.45072 88.3487 8.41618C88.3487 8.38163 88.2633 8.35227 88.1579 8.35227C88.0534 8.35227 87.9679 8.32377 87.9679 8.28923C87.9679 8.25468 87.853 8.22532 87.714 8.22532C87.5741 8.22532 87.4601 8.19682 87.4601 8.16228C87.4601 8.12774 87.3737 8.09837 87.2692 8.09837C87.1648 8.09837 87.0784 8.06987 87.0784 8.03533C87.0784 8.00079 86.9929 7.97142 86.8884 7.97142C86.7839 7.97142 86.6975 7.94293 86.6975 7.90752C86.6975 7.87297 86.6121 7.84448 86.5076 7.84448C86.4031 7.84448 86.3167 7.81598 86.3167 7.78057C86.3167 7.74603 86.2597 7.71753 86.1898 7.71753C86.1198 7.71753 86.0628 7.68903 86.0628 7.65362C86.0628 7.61908 86.0058 7.59058 85.9359 7.59058C85.8668 7.59058 85.8089 7.56208 85.8089 7.52667C85.8089 7.49213 85.7519 7.46363 85.682 7.46363C85.6129 7.46363 85.555 7.43513 85.555 7.39972C85.555 7.36518 85.5118 7.33668 85.4583 7.33668C85.3331 7.33668 84.5394 6.54217 84.5394 6.41695C84.5394 6.36427 84.5109 6.32109 84.4755 6.32109C84.4375 6.32109 84.4125 6.04993 84.4125 5.63626C84.4125 5.02484 84.4263 4.94193 84.5394 4.86075C84.6085 4.8098 84.6664 4.73122 84.6664 4.68545C84.6664 4.56972 85.0852 4.16211 85.2035 4.16211C85.2571 4.16211 85.3011 4.13361 85.3011 4.09906C85.3011 4.06452 85.3581 4.03516 85.4281 4.03516C85.4972 4.03516 85.555 4.00666 85.555 3.97212C85.555 3.93757 85.6414 3.90821 85.745 3.90821C85.8504 3.90821 85.9359 3.87971 85.9359 3.84517C85.9359 3.81062 86.0792 3.78126 86.2537 3.78126C86.4281 3.78126 86.5706 3.75276 86.5706 3.71736C86.5706 3.67763 86.9938 3.65431 87.714 3.65431C88.4334 3.65431 88.8565 3.67763 88.8565 3.71736C88.8565 3.75276 89.0258 3.78126 89.2374 3.78126C89.449 3.78126 89.6182 3.80976 89.6182 3.84517C89.6182 3.87971 89.7322 3.90821 89.8721 3.90821C90.012 3.90821 90.126 3.93671 90.126 3.97212C90.126 4.00666 90.2115 4.03516 90.3169 4.03516C90.4214 4.03516 90.5069 4.06366 90.5069 4.09906C90.5069 4.13361 90.5932 4.16211 90.6977 4.16211C90.8022 4.16211 90.8877 4.19061 90.8877 4.22601C90.8877 4.26056 90.9456 4.28906 91.0147 4.28906C91.0846 4.28906 91.1416 4.31755 91.1416 4.35296C91.1416 4.38751 91.1995 4.416 91.2686 4.416C91.3385 4.416 91.3955 4.4445 91.3955 4.47991C91.3955 4.51445 91.4534 4.54295 91.5233 4.54295C91.5924 4.54295 91.6503 4.57145 91.6503 4.60686C91.6503 4.6414 91.7073 4.6699 91.7772 4.6699C91.8463 4.6699 91.9042 4.6984 91.9042 4.73381C91.9042 4.76835 91.9612 4.79685 92.0311 4.79685C92.1011 4.79685 92.1581 4.82535 92.1581 4.86075C92.1581 4.8953 92.209 4.9238 92.2703 4.9238C92.3325 4.9238 92.4249 4.98079 92.475 5.05075C92.526 5.1207 92.6115 5.17769 92.6659 5.17769C92.7203 5.17769 92.8058 5.23469 92.8559 5.30464C92.9068 5.37459 92.9983 5.43159 93.0605 5.43159C93.1313 5.43159 93.1737 5.38409 93.1737 5.30464C93.1737 5.23556 93.2022 5.17769 93.2367 5.17769C93.2721 5.17769 93.3006 5.0922 93.3006 4.9877C93.3006 4.88235 93.3291 4.79771 93.3636 4.79771C93.399 4.79771 93.4275 4.73985 93.4275 4.6699C93.4275 4.60081 93.456 4.54295 93.4906 4.54295C93.526 4.54295 93.5545 4.48595 93.5545 4.416C93.5545 4.34692 93.583 4.28906 93.6184 4.28906C93.6529 4.28906 93.6814 4.23206 93.6814 4.16211C93.6814 4.09302 93.7099 4.03516 93.7454 4.03516C93.7799 4.03516 93.8084 3.98421 93.8084 3.92289C93.8084 3.85985 93.8654 3.76744 93.9353 3.71736C94.0053 3.66727 94.0623 3.57573 94.0623 3.51355C94.0623 3.45137 94.0908 3.40042 94.1262 3.40042C94.1607 3.40042 94.1892 3.34342 94.1892 3.27347C94.1892 3.20352 94.2177 3.14652 94.2531 3.14652C94.2877 3.14652 94.3162 3.08952 94.3162 3.01957C94.3162 2.94962 94.3447 2.89262 94.3801 2.89262C94.4146 2.89262 94.4431 2.84771 94.4431 2.79244C94.4431 2.67586 94.2937 2.51178 94.1875 2.51178C94.1469 2.51178 94.0329 2.42542 93.9353 2.32178C93.8378 2.21643 93.7117 2.13093 93.6564 2.13093C93.6003 2.13093 93.5545 2.10243 93.5545 2.06702C93.5545 2.03248 93.5035 2.00398 93.4414 2.00398C93.3792 2.00398 93.2877 1.94612 93.2367 1.87703C93.1866 1.80708 93.0951 1.75008 93.0329 1.75008C92.9707 1.75008 92.9198 1.72072 92.9198 1.68618C92.9198 1.65164 92.8628 1.62227 92.7928 1.62227C92.7229 1.62227 92.6659 1.59377 92.6659 1.55923C92.6659 1.52469 92.5804 1.49532 92.475 1.49532C92.3705 1.49532 92.285 1.46683 92.285 1.43228C92.285 1.39774 92.228 1.36838 92.1581 1.36838C92.0881 1.36838 92.0311 1.33988 92.0311 1.30533C92.0311 1.27079 91.9448 1.24143 91.8403 1.24143C91.7358 1.24143 91.6503 1.21293 91.6503 1.17838C91.6503 1.14384 91.5639 1.11448 91.4594 1.11448C91.3549 1.11448 91.2686 1.08598 91.2686 1.05144C91.2686 1.01689 91.1546 0.98753 91.0147 0.98753C90.8756 0.98753 90.7608 0.959032 90.7608 0.924488C90.7608 0.889944 90.6468 0.860582 90.5069 0.860582C90.3678 0.860582 90.253 0.832083 90.253 0.797539C90.253 0.762996 90.139 0.733633 89.9991 0.733633C89.8592 0.733633 89.7452 0.705135 89.7452 0.670591C89.7452 0.633456 89.5336 0.606685 89.2374 0.606685C88.9412 0.606685 88.7296 0.580777 88.7296 0.543642C88.7296 0.503053 88.3064 0.479736 87.5871 0.479736C86.8668 0.479736 86.4436 0.503053 86.4436 0.543642ZM0.10141 10.1935V19.5263H13.4336V16.6065H3.52988V8.82293C3.52988 2.16375 3.51607 1.02812 3.43921 0.950396C3.36494 0.877854 3.04713 0.860582 1.72497 0.860582H0.10141V10.1935ZM23.9885 1.02121C23.9084 1.10768 23.8581 1.21756 23.8451 1.3347C23.8451 1.42365 23.8166 1.49532 23.7821 1.49532C23.7475 1.49532 23.7181 1.55319 23.7181 1.62227C23.7181 1.69222 23.6896 1.75008 23.6551 1.75008C23.6206 1.75008 23.5912 1.80708 23.5912 1.87703C23.5912 1.94612 23.5627 2.00398 23.5282 2.00398C23.4936 2.00398 23.4643 2.06098 23.4643 2.13093C23.4643 2.20002 23.4358 2.25788 23.4012 2.25788C23.3667 2.25788 23.3373 2.34337 23.3373 2.44787C23.3373 2.55236 23.3088 2.63786 23.2743 2.63786C23.2397 2.63786 23.2104 2.69572 23.2104 2.76567C23.2104 2.83476 23.1819 2.89262 23.1473 2.89262C23.1128 2.89262 23.0834 2.94962 23.0834 3.01957C23.0834 3.08866 23.0549 3.14652 23.0204 3.14652C22.9858 3.14652 22.9565 3.20352 22.9565 3.27347C22.9565 3.34255 22.928 3.40042 22.8934 3.40042C22.8589 3.40042 22.8295 3.48678 22.8295 3.59041C22.8295 3.69577 22.801 3.78126 22.7665 3.78126C22.7319 3.78126 22.7026 3.83826 22.7026 3.90821C22.7026 3.9773 22.6741 4.03516 22.6395 4.03516C22.605 4.03516 22.5756 4.09216 22.5756 4.16211C22.5756 4.23206 22.5471 4.28906 22.5126 4.28906C22.478 4.28906 22.4487 4.34605 22.4487 4.416C22.4487 4.48595 22.4202 4.54295 22.3856 4.54295C22.3511 4.54295 22.3217 4.62931 22.3217 4.73294C22.3217 4.8383 22.2932 4.9238 22.2587 4.9238C22.2241 4.9238 22.1948 4.98079 22.1948 5.05075C22.1948 5.1207 22.1663 5.17769 22.1317 5.17769C22.0972 5.17769 22.0678 5.23469 22.0678 5.30464C22.0678 5.37459 22.0393 5.43159 22.0048 5.43159C21.9702 5.43159 21.9409 5.48945 21.9409 5.55854C21.9409 5.62849 21.9124 5.68549 21.8778 5.68549C21.8424 5.68549 21.8139 5.77185 21.8139 5.87634C21.8139 5.98084 21.7854 6.06633 21.75 6.06633C21.7155 6.06633 21.687 6.1242 21.687 6.19415C21.687 6.26323 21.6585 6.32109 21.6231 6.32109C21.5885 6.32109 21.56 6.37809 21.56 6.44804C21.56 6.51713 21.5315 6.57499 21.4961 6.57499C21.4616 6.57499 21.4331 6.65444 21.4331 6.75116C21.4331 6.8548 21.3813 6.96534 21.3061 7.01888C21.2665 7.05137 21.2346 7.09223 21.2127 7.13851C21.1907 7.1848 21.1793 7.23537 21.1792 7.28659C21.1792 7.38418 21.1507 7.46363 21.1153 7.46363C21.0807 7.46363 21.0522 7.52063 21.0522 7.59058C21.0522 7.65967 21.0237 7.71753 20.9883 7.71753C20.9538 7.71753 20.9253 7.77453 20.9253 7.84448C20.9253 7.91356 20.8968 7.97142 20.8614 7.97142C20.8268 7.97142 20.7983 8.02842 20.7983 8.09837C20.7983 8.16746 20.7698 8.22532 20.7344 8.22532C20.6999 8.22532 20.6714 8.31168 20.6714 8.41531C20.6714 8.52067 20.6429 8.60617 20.6075 8.60617C20.5729 8.60617 20.5444 8.66316 20.5444 8.73312C20.5444 8.80307 20.5159 8.86006 20.4805 8.86006C20.446 8.86006 20.4175 8.94642 20.4175 9.05006C20.4175 9.15541 20.3881 9.24091 20.3536 9.24091C20.319 9.24091 20.2905 9.29877 20.2905 9.36786C20.2905 9.43781 20.2612 9.49481 20.2266 9.49481C20.1921 9.49481 20.1636 9.5518 20.1636 9.62176C20.1636 9.69171 20.1342 9.7487 20.0997 9.7487C20.0651 9.7487 20.0366 9.80657 20.0366 9.87565C20.0366 9.9456 20.0073 10.0026 19.9727 10.0026C19.9382 10.0026 19.9097 10.0605 19.9097 10.1295C19.9097 10.1995 19.8803 10.2574 19.8458 10.2574C19.8112 10.2574 19.7819 10.3144 19.7819 10.3843C19.7819 10.4534 19.7534 10.5113 19.7188 10.5113C19.6843 10.5113 19.6549 10.5683 19.6549 10.6382C19.6549 10.7073 19.6264 10.7652 19.5919 10.7652C19.5573 10.7652 19.528 10.8507 19.528 10.9551C19.528 11.0596 19.4995 11.1451 19.4649 11.1451C19.4304 11.1451 19.401 11.203 19.401 11.2729C19.401 11.342 19.3725 11.3999 19.338 11.3999C19.3034 11.3999 19.2741 11.4863 19.2741 11.5899C19.2741 11.6952 19.2456 11.7799 19.211 11.7799C19.1765 11.7799 19.1471 11.8377 19.1471 11.9077C19.1471 11.9768 19.1186 12.0346 19.0841 12.0346C19.0496 12.0346 19.0202 12.0916 19.0202 12.1616C19.0202 12.2307 18.9917 12.2885 18.9571 12.2885C18.9226 12.2885 18.8932 12.3455 18.8932 12.4155C18.8932 12.4846 18.8647 12.5424 18.8302 12.5424C18.7957 12.5424 18.7663 12.6288 18.7663 12.7324C18.7663 12.8378 18.7378 12.9233 18.7032 12.9233C18.6687 12.9233 18.6393 12.9803 18.6393 13.0502C18.6393 13.1202 18.6108 13.1772 18.5763 13.1772C18.5418 13.1772 18.5124 13.2342 18.5124 13.3041C18.5124 13.3741 18.4839 13.4311 18.4494 13.4311C18.4148 13.4311 18.3854 13.4881 18.3854 13.558C18.3854 13.628 18.3569 13.685 18.3224 13.685C18.2879 13.685 18.2585 13.742 18.2585 13.8119C18.2585 13.8819 18.23 13.9389 18.1955 13.9389C18.1609 13.9389 18.1315 14.0252 18.1315 14.1297C18.1315 14.2342 18.1031 14.3197 18.0685 14.3197C18.034 14.3197 18.0046 14.3776 18.0046 14.4467C18.0046 14.5166 17.9761 14.5745 17.9416 14.5745C17.907 14.5745 17.8777 14.6315 17.8777 14.7014C17.8777 14.7705 17.8492 14.8284 17.8137 14.8284C17.7792 14.8284 17.7507 14.9139 17.7507 15.0184C17.7507 15.1237 17.7222 15.2084 17.6877 15.2084C17.6523 15.2084 17.6238 15.2662 17.6238 15.3362C17.6238 15.4053 17.5953 15.4631 17.5599 15.4631C17.5253 15.4631 17.4968 15.5201 17.4968 15.5901C17.4968 15.6592 17.4683 15.717 17.4329 15.717C17.3984 15.717 17.3699 15.774 17.3699 15.844C17.3699 15.913 17.3414 15.9709 17.306 15.9709C17.2714 15.9709 17.2429 16.0573 17.2429 16.1609C17.2429 16.2663 17.2144 16.3518 17.179 16.3518C17.1445 16.3518 17.116 16.4088 17.116 16.4787C17.116 16.5478 17.0875 16.6056 17.0521 16.6056C17.0175 16.6056 16.989 16.6626 16.989 16.7326C16.989 16.8017 16.9605 16.8595 16.9251 16.8595C16.8906 16.8595 16.8621 16.9165 16.8621 16.9865C16.8621 17.0564 16.8336 17.1134 16.7982 17.1134C16.7636 17.1134 16.7351 17.1704 16.7351 17.2404C16.7351 17.3103 16.7066 17.3673 16.6712 17.3673C16.6367 17.3673 16.6082 17.4537 16.6082 17.5573C16.6082 17.6627 16.5797 17.7482 16.5443 17.7482C16.5097 17.7482 16.4812 17.806 16.4812 17.8751C16.4812 17.9451 16.4527 18.0021 16.4173 18.0021C16.3828 18.0021 16.3543 18.0591 16.3543 18.129C16.3543 18.199 16.3258 18.256 16.2904 18.256C16.2558 18.256 16.2273 18.3423 16.2273 18.4468C16.2273 18.5513 16.198 18.6368 16.1634 18.6368C16.1289 18.6368 16.1004 18.6947 16.1004 18.7646C16.1004 18.8337 16.071 18.8916 16.0365 18.8916C16.0019 18.8916 15.9734 18.9486 15.9734 19.0185C15.9734 19.0876 15.9441 19.1455 15.9095 19.1455C15.875 19.1455 15.8456 19.2025 15.8456 19.2724C15.8456 19.3415 15.8171 19.3994 15.7826 19.3994C15.7659 19.3996 15.75 19.4063 15.7382 19.4181C15.7265 19.4299 15.7198 19.4458 15.7195 19.4624C15.7195 19.503 16.3543 19.5263 17.4968 19.5263C19.2326 19.5263 19.2741 19.5229 19.2741 19.3994C19.2741 19.3294 19.3026 19.2724 19.338 19.2724C19.3725 19.2724 19.401 19.2146 19.401 19.1455C19.401 19.0755 19.4304 19.0185 19.4649 19.0185C19.4995 19.0185 19.528 18.9322 19.528 18.8285C19.528 18.7232 19.5573 18.6368 19.5919 18.6368C19.6264 18.6368 19.6549 18.5798 19.6549 18.5107C19.6549 18.4408 19.6843 18.3829 19.7188 18.3829C19.7534 18.3829 19.7819 18.2974 19.7819 18.1929C19.7819 18.0884 19.8112 18.0029 19.8458 18.0029C19.8803 18.0029 19.9088 17.9451 19.9088 17.8751C19.9088 17.806 19.9382 17.7482 19.9727 17.7482C20.0073 17.7482 20.0358 17.6912 20.0358 17.6212C20.0358 17.5522 20.0651 17.4943 20.0997 17.4943C20.1342 17.4943 20.1636 17.4373 20.1636 17.3673C20.1636 17.2983 20.1921 17.2404 20.2266 17.2404C20.2612 17.2404 20.2905 17.1549 20.2905 17.0504C20.2905 16.945 20.319 16.8604 20.3536 16.8604C20.3881 16.8604 20.4175 16.8025 20.4175 16.7326C20.4175 16.6635 20.446 16.6056 20.4805 16.6056C20.5151 16.6056 20.5444 16.5487 20.5444 16.4787C20.5444 16.4096 20.5729 16.3518 20.6075 16.3518C20.642 16.3518 20.6714 16.2654 20.6714 16.1618C20.6714 16.0564 20.6999 15.9709 20.7344 15.9709C20.769 15.9709 20.7983 15.9139 20.7983 15.844C20.7983 15.774 20.8268 15.717 20.8614 15.717C20.8959 15.717 20.9253 15.6721 20.9253 15.6168C20.9253 15.3301 20.813 15.3362 26.0309 15.3362C30.7098 15.3362 30.9559 15.3413 30.9559 15.4484C30.9559 15.5115 31.0129 15.603 31.0829 15.6531C31.1226 15.6855 31.1546 15.7264 31.1765 15.7727C31.1985 15.819 31.2099 15.8696 31.2098 15.9208C31.2098 16.0184 31.2383 16.0979 31.2737 16.0979C31.3083 16.0979 31.3368 16.1549 31.3368 16.2248C31.3368 16.2939 31.3653 16.3518 31.4007 16.3518C31.4352 16.3518 31.4637 16.4088 31.4637 16.4787C31.4637 16.5478 31.4922 16.6056 31.5276 16.6056C31.5622 16.6056 31.5907 16.6626 31.5907 16.7326C31.5907 16.8017 31.6192 16.8595 31.6546 16.8595C31.6891 16.8595 31.7176 16.9165 31.7176 16.9865C31.7176 17.0564 31.7461 17.1134 31.7815 17.1134C31.8161 17.1134 31.8446 17.1998 31.8446 17.3034C31.8446 17.4088 31.8731 17.4943 31.9085 17.4943C31.943 17.4943 31.9715 17.5513 31.9715 17.6212C31.9715 17.6912 32 17.7482 32.0354 17.7482C32.07 17.7482 32.0985 17.806 32.0985 17.8751C32.0985 17.9451 32.1278 18.0021 32.1624 18.0021C32.1969 18.0021 32.2254 18.0591 32.2254 18.129C32.2254 18.199 32.2539 18.256 32.2893 18.256C32.3239 18.256 32.3532 18.3138 32.3532 18.3829C32.3532 18.4529 32.3809 18.5107 32.4163 18.5107C32.4508 18.5107 32.4802 18.5677 32.4802 18.6368C32.4802 18.7068 32.5087 18.7646 32.5432 18.7646C32.5778 18.7646 32.6071 18.8216 32.6071 18.8916C32.6071 18.9607 32.6356 19.0185 32.6702 19.0185C32.7047 19.0185 32.7332 19.0755 32.7332 19.1455C32.7332 19.2146 32.7626 19.2724 32.7971 19.2724C32.8317 19.2724 32.861 19.3294 32.861 19.3994C32.861 19.5237 32.9033 19.5263 34.8292 19.5263C36.0986 19.5263 36.7964 19.5039 36.7964 19.4624C36.7962 19.4458 36.7895 19.4299 36.7777 19.4181C36.7659 19.4063 36.75 19.3996 36.7334 19.3994C36.6988 19.3994 36.6695 19.3424 36.6695 19.2724C36.6695 19.2025 36.641 19.1455 36.6064 19.1455C36.5719 19.1455 36.5425 19.0885 36.5425 19.0185C36.5425 18.9486 36.514 18.8916 36.4795 18.8916C36.445 18.8916 36.4156 18.8337 36.4156 18.7646C36.4156 18.6947 36.3871 18.6368 36.3525 18.6368C36.318 18.6368 36.2886 18.5798 36.2886 18.5107C36.2886 18.4408 36.2601 18.3829 36.2256 18.3829C36.1911 18.3829 36.1617 18.2974 36.1617 18.1929C36.1617 18.0884 36.1332 18.0029 36.0987 18.0029C36.0641 18.0029 36.0347 17.9451 36.0347 17.8751C36.0347 17.806 36.0062 17.7482 35.9717 17.7482C35.9372 17.7482 35.9078 17.6912 35.9078 17.6212C35.9078 17.5522 35.8793 17.4943 35.8447 17.4943C35.8102 17.4943 35.7808 17.4373 35.7808 17.3673C35.7808 17.2983 35.7523 17.2404 35.7178 17.2404C35.6833 17.2404 35.6539 17.1834 35.6539 17.1134C35.6539 17.0444 35.6254 16.9865 35.5909 16.9865C35.5563 16.9865 35.5269 16.9295 35.5269 16.8595C35.5269 16.7905 35.4985 16.7326 35.4639 16.7326C35.4294 16.7326 35.4 16.6756 35.4 16.6056C35.4 16.5366 35.3715 16.4787 35.337 16.4787C35.3024 16.4787 35.2731 16.4217 35.2731 16.3518C35.2731 16.2827 35.2446 16.2248 35.21 16.2248C35.1755 16.2248 35.1461 16.1678 35.1461 16.0979C35.1461 16.0288 35.1176 15.9709 35.0831 15.9709C35.0485 15.9709 35.0192 15.9139 35.0192 15.844C35.0192 15.774 34.9907 15.717 34.9561 15.717C34.9216 15.717 34.8922 15.66 34.8922 15.5901C34.8922 15.5201 34.8637 15.4631 34.8283 15.4631C34.7938 15.4631 34.7653 15.4061 34.7653 15.3362C34.7653 15.2662 34.7368 15.2092 34.7022 15.2092C34.6677 15.2092 34.6383 15.1229 34.6383 15.0192C34.6383 14.9139 34.6098 14.8284 34.5744 14.8284C34.5399 14.8284 34.5114 14.7705 34.5114 14.7014C34.5114 14.6315 34.4829 14.5745 34.4475 14.5745C34.4129 14.5745 34.3844 14.5166 34.3844 14.4467C34.3844 14.3776 34.3559 14.3206 34.3205 14.3206C34.286 14.3206 34.2575 14.2627 34.2575 14.1928C34.2575 14.1237 34.229 14.0658 34.1936 14.0658C34.159 14.0658 34.1305 14.0088 34.1305 13.9389C34.1305 13.8698 34.102 13.8119 34.0666 13.8119C34.0321 13.8119 34.0036 13.7549 34.0036 13.685C34.0036 13.6159 33.9751 13.558 33.9397 13.558C33.9051 13.558 33.8766 13.501 33.8766 13.4311C33.8766 13.362 33.8481 13.3041 33.8127 13.3041C33.7782 13.3041 33.7497 13.2471 33.7497 13.1772C33.7497 13.1081 33.7212 13.0502 33.6858 13.0502C33.6512 13.0502 33.6227 12.9932 33.6227 12.9233C33.6227 12.8542 33.5942 12.7963 33.5588 12.7963C33.5243 12.7963 33.4958 12.7393 33.4958 12.6694C33.4958 12.6003 33.4673 12.5424 33.4319 12.5424C33.3973 12.5424 33.3688 12.4854 33.3688 12.4155C33.3688 12.3464 33.3403 12.2885 33.3049 12.2885C33.2704 12.2885 33.2419 12.2315 33.2419 12.1616C33.2419 12.0925 33.2134 12.0346 33.178 12.0346C33.1434 12.0346 33.1149 11.9483 33.1149 11.8446C33.1149 11.7393 33.0856 11.6538 33.051 11.6538C33.0165 11.6538 32.988 11.5968 32.988 11.5268C32.988 11.4569 32.9595 11.3999 32.9241 11.3999C32.8895 11.3999 32.861 11.3429 32.861 11.2729C32.861 11.203 32.8325 11.146 32.7971 11.146C32.7626 11.146 32.7332 11.089 32.7332 11.0191C32.7332 10.9491 32.7047 10.8921 32.6702 10.8921C32.6356 10.8921 32.6063 10.8351 32.6063 10.7652C32.6063 10.6952 32.5778 10.6382 32.5432 10.6382C32.5087 10.6382 32.4802 10.5812 32.4802 10.5113C32.4802 10.4413 32.4508 10.3843 32.4163 10.3843C32.3817 10.3843 32.3532 10.3264 32.3532 10.2574C32.3532 10.1874 32.3239 10.1295 32.2893 10.1295C32.2548 10.1295 32.2254 10.0726 32.2254 10.0035C32.2254 9.93351 32.1969 9.87565 32.1624 9.87565C32.1278 9.87565 32.0985 9.81866 32.0985 9.7487C32.0985 9.67962 32.07 9.62176 32.0354 9.62176C32.0009 9.62176 31.9715 9.56476 31.9715 9.49481C31.9715 9.42572 31.943 9.36786 31.9085 9.36786C31.8739 9.36786 31.8446 9.31086 31.8446 9.24091C31.8446 9.17182 31.8161 9.11396 31.7815 9.11396C31.747 9.11396 31.7176 9.05696 31.7176 8.98701C31.7176 8.91792 31.6891 8.86006 31.6546 8.86006C31.62 8.86006 31.5907 8.77457 31.5907 8.67007C31.5907 8.56471 31.5622 8.48008 31.5276 8.48008C31.4931 8.48008 31.4637 8.42222 31.4637 8.35227C31.4637 8.28318 31.4352 8.22532 31.4007 8.22532C31.3661 8.22532 31.3368 8.16832 31.3368 8.09837C31.3368 8.02929 31.3083 7.97142 31.2737 7.97142C31.2392 7.97142 31.2098 7.91443 31.2098 7.84448C31.2098 7.77539 31.1813 7.71753 31.1468 7.71753C31.1123 7.71753 31.0829 7.66053 31.0829 7.59058C31.0829 7.52063 31.0544 7.46363 31.0198 7.46363C30.9853 7.46363 30.9559 7.40663 30.9559 7.33668C30.9559 7.26673 30.9274 7.20973 30.8929 7.20973C30.8584 7.20973 30.829 7.15274 30.829 7.08279C30.829 7.01283 30.8005 6.95584 30.7659 6.95584C30.7314 6.95584 30.702 6.89884 30.702 6.82889C30.702 6.75894 30.6735 6.70194 30.6381 6.70194C30.6036 6.70194 30.5751 6.64494 30.5751 6.57499C30.5751 6.50504 30.5466 6.44804 30.5112 6.44804C30.4766 6.44804 30.4481 6.39018 30.4481 6.32109C30.4481 6.25114 30.4196 6.19415 30.3842 6.19415C30.3497 6.19415 30.3212 6.13629 30.3212 6.0672C30.3212 5.99725 30.2927 5.94025 30.2582 5.94025C30.2227 5.94025 30.1942 5.88239 30.1942 5.81244C30.1942 5.74335 30.1658 5.68549 30.1303 5.68549C30.0958 5.68549 30.0673 5.62849 30.0673 5.55854C30.0673 5.48945 30.0388 5.43159 30.0034 5.43159C29.9688 5.43159 29.9404 5.37459 29.9404 5.30464C29.9404 5.23556 29.9119 5.17769 29.8764 5.17769C29.8419 5.17769 29.8134 5.09824 29.8134 5.00152C29.8134 4.89789 29.7616 4.78735 29.6865 4.73381C29.6488 4.70267 29.618 4.664 29.5961 4.62028C29.5743 4.57656 29.5618 4.52874 29.5595 4.47991C29.5572 4.43108 29.5447 4.38326 29.5229 4.33954C29.501 4.29581 29.4702 4.25714 29.4326 4.22601C29.3929 4.19356 29.361 4.15271 29.339 4.10642C29.3171 4.06012 29.3056 4.00953 29.3056 3.9583C29.3056 3.86071 29.2771 3.78126 29.2417 3.78126C29.2072 3.78126 29.1787 3.72426 29.1787 3.65431C29.1787 3.58522 29.1502 3.52736 29.1148 3.52736C29.0802 3.52736 29.0517 3.47037 29.0517 3.40042C29.0517 3.33046 29.0232 3.27347 28.9878 3.27347C28.9533 3.27347 28.9248 3.21647 28.9248 3.14652C28.9248 3.07657 28.8963 3.01957 28.8609 3.01957C28.8263 3.01957 28.7978 2.96257 28.7978 2.89262C28.7978 2.82267 28.7685 2.76567 28.7339 2.76567C28.6994 2.76567 28.6709 2.70868 28.6709 2.63872C28.6709 2.56877 28.6415 2.51178 28.607 2.51178C28.5724 2.51178 28.5439 2.45478 28.5439 2.38483C28.5439 2.31488 28.5154 2.25788 28.48 2.25788C28.4455 2.25788 28.417 2.20002 28.417 2.13093C28.417 2.06098 28.3876 2.00398 28.3531 2.00398C28.3185 2.00398 28.2892 1.94612 28.2892 1.87703C28.2892 1.80708 28.2607 1.75008 28.2261 1.75008C28.1916 1.75008 28.1622 1.69222 28.1622 1.62227C28.1622 1.55319 28.1337 1.49532 28.0992 1.49532C28.0646 1.49532 28.0353 1.43833 28.0353 1.36838C28.0353 1.29929 28.0068 1.24143 27.9722 1.24143C27.9377 1.24143 27.9083 1.19652 27.9083 1.14211C27.9083 0.874399 27.8133 0.860582 25.929 0.8649L24.1309 0.868354L23.9885 1.02121ZM96.7291 2.29415C96.7291 3.45137 96.7463 3.74499 96.8197 3.81753C96.8957 3.89353 97.4061 3.90821 99.9943 3.90821H103.077V19.5263H106.379V3.90821H112.982V0.860582H96.7291V2.29415ZM115.902 10.1935V19.5263H130.504V16.6065H119.33V11.6529H124.028C128.684 11.6529 128.726 11.6521 128.726 11.526C128.726 11.456 128.755 11.399 128.79 11.399C128.83 11.399 128.853 11.0389 128.853 10.4465C128.853 9.85406 128.83 9.49394 128.79 9.49394C128.699 9.49394 128.711 9.25732 128.806 9.21414C128.87 9.18391 128.87 9.16923 128.806 9.13987C128.762 9.11914 128.726 9.01897 128.726 8.91793V8.73225H119.33V3.90907H130.123V0.860582H115.902V10.1935ZM68.1596 3.84517C68.1596 3.88144 68.3496 3.90821 68.6044 3.90821C68.8583 3.90821 69.0483 3.93584 69.0483 3.97212C69.0483 4.00666 69.1623 4.03516 69.3022 4.03516C69.4421 4.03516 69.556 4.06366 69.556 4.09906C69.556 4.13361 69.6424 4.16211 69.746 4.16211C69.8514 4.16211 69.9369 4.19061 69.9369 4.22601C69.9369 4.26056 70.0233 4.28906 70.1269 4.28906C70.2322 4.28906 70.3186 4.31755 70.3186 4.35296C70.3186 4.38751 70.3756 4.416 70.4455 4.416C70.5146 4.416 70.5725 4.4445 70.5725 4.47991C70.5725 4.51445 70.6295 4.54295 70.6995 4.54295C70.7685 4.54295 70.8264 4.57145 70.8264 4.60686C70.8264 4.6414 70.8765 4.6699 70.9387 4.6699C71.0008 4.6699 71.0933 4.7269 71.1433 4.79685C71.1943 4.8668 71.2737 4.9238 71.3212 4.9238C71.3687 4.9238 71.5173 5.03866 71.6511 5.17769C71.7859 5.3176 71.9275 5.43159 71.9663 5.43159C72.0579 5.43159 72.4767 5.8513 72.4767 5.94284C72.4767 5.9817 72.5907 6.12333 72.7306 6.25719C72.8705 6.39105 72.9845 6.54045 72.9845 6.58708C72.9845 6.63458 73.0415 6.71489 73.1115 6.76498C73.1814 6.81594 73.2384 6.90748 73.2384 6.96966C73.2384 7.03183 73.2669 7.08192 73.3023 7.08192C73.3369 7.08192 73.3654 7.13978 73.3654 7.20973C73.3654 7.27882 73.3939 7.33668 73.4293 7.33668C73.4638 7.33668 73.4923 7.39368 73.4923 7.46363C73.4923 7.53272 73.5208 7.59058 73.5562 7.59058C73.5908 7.59058 73.6193 7.67694 73.6193 7.78057C73.6193 7.88593 73.6478 7.97142 73.6832 7.97142C73.7177 7.97142 73.7462 8.05778 73.7462 8.16142C73.7462 8.26677 73.7747 8.35227 73.8101 8.35227C73.8447 8.35227 73.8732 8.46627 73.8732 8.60617C73.8732 8.74607 73.9017 8.86006 73.9371 8.86006C73.9716 8.86006 74.0001 9.02933 74.0001 9.24091C74.0001 9.45249 74.0286 9.62176 74.064 9.62176C74.102 9.62176 74.1271 9.85493 74.1271 10.1935C74.1271 10.532 74.1012 10.7652 74.064 10.7652C74.0277 10.7652 74.0001 10.9551 74.0001 11.209C74.0001 11.4629 73.9733 11.6538 73.9371 11.6538C73.9025 11.6538 73.8732 11.7678 73.8732 11.9077C73.8732 12.0476 73.8447 12.1616 73.8101 12.1616C73.7756 12.1616 73.7462 12.2479 73.7462 12.3516C73.7462 12.4569 73.7177 12.5424 73.6832 12.5424C73.6486 12.5424 73.6193 12.5994 73.6193 12.6694C73.6193 12.7393 73.5908 12.7963 73.5562 12.7963C73.5217 12.7963 73.4923 12.8827 73.4923 12.9863C73.4923 13.0917 73.4638 13.1772 73.4293 13.1772C73.3947 13.1772 73.3654 13.229 73.3654 13.2903C73.3654 13.3525 73.3084 13.444 73.2384 13.495C73.1693 13.5451 73.1115 13.6306 73.1115 13.685C73.1115 13.7394 73.0545 13.8257 72.9845 13.875C72.9154 13.9268 72.8576 14.0045 72.8576 14.0494C72.8576 14.1565 71.6779 15.3362 71.5708 15.3362C71.5259 15.3362 71.4482 15.3932 71.3981 15.4631C71.3463 15.5322 71.2547 15.5901 71.1926 15.5901C71.1304 15.5901 71.0803 15.6186 71.0803 15.6531C71.0803 15.6876 71.0285 15.717 70.9672 15.717C70.905 15.717 70.8126 15.774 70.7625 15.844C70.7124 15.913 70.62 15.9709 70.5578 15.9709C70.4956 15.9709 70.4455 15.9994 70.4455 16.0339C70.4455 16.0685 70.3592 16.0979 70.2547 16.0979C70.1502 16.0979 70.0647 16.1264 70.0647 16.1609C70.0647 16.1954 70.0068 16.2248 69.9369 16.2248C69.8678 16.2248 69.8099 16.2533 69.8099 16.2878C69.8099 16.3224 69.696 16.3518 69.556 16.3518C69.417 16.3518 69.3022 16.3803 69.3022 16.4148C69.3022 16.4493 69.1597 16.4787 68.9852 16.4787C68.8099 16.4787 68.6674 16.5072 68.6674 16.5417C68.6674 16.5823 68.265 16.6056 67.5879 16.6056C66.9109 16.6056 66.5084 16.5823 66.5084 16.5426C66.5084 16.5081 66.3659 16.4787 66.1915 16.4787C66.017 16.4787 65.8737 16.4502 65.8737 16.4148C65.8737 16.3803 65.7597 16.3518 65.6198 16.3518C65.4807 16.3518 65.3659 16.3233 65.3659 16.2887C65.3659 16.2533 65.3089 16.2248 65.2389 16.2248C65.1698 16.2248 65.112 16.1963 65.112 16.1609C65.112 16.1264 65.0265 16.0979 64.922 16.0979C64.8166 16.0979 64.732 16.0694 64.732 16.0339C64.732 15.9994 64.6741 15.9709 64.6042 15.9709C64.5351 15.9709 64.4772 15.9424 64.4772 15.907C64.4772 15.8725 64.4263 15.844 64.365 15.844C64.3019 15.844 64.2095 15.787 64.1603 15.717C64.1094 15.6471 64.0239 15.5901 63.9695 15.5901C63.9151 15.5901 63.8296 15.5331 63.7795 15.4631C63.7285 15.3932 63.6499 15.3362 63.605 15.3362C63.4988 15.3362 62.3183 14.1565 62.3183 14.0494C62.3183 14.0045 62.2613 13.9259 62.1913 13.8758C62.1222 13.8257 62.0652 13.7333 62.0652 13.6712C62.0652 13.609 62.0359 13.5589 62.0013 13.5589C61.9668 13.5589 61.9383 13.5071 61.9383 13.4458C61.9383 13.3836 61.8804 13.2912 61.8105 13.2411C61.7414 13.1901 61.6835 13.0986 61.6835 13.0364C61.6835 12.9742 61.655 12.9241 61.6205 12.9241C61.5859 12.9241 61.5566 12.8378 61.5566 12.7333C61.5566 12.6279 61.5281 12.5433 61.4935 12.5433C61.459 12.5433 61.4296 12.4569 61.4296 12.3524C61.4296 12.2471 61.4011 12.1616 61.3666 12.1616C61.332 12.1616 61.3027 12.0752 61.3027 11.9716C61.3027 11.8662 61.2742 11.7807 61.2396 11.7807C61.2042 11.7807 61.1757 11.6115 61.1757 11.3999C61.1757 11.1883 61.1481 11.0191 61.1127 11.0191C61.0738 11.0191 61.0488 10.7228 61.0488 10.2565C61.0488 9.79188 61.0738 9.49481 61.1127 9.49481C61.1472 9.49481 61.1757 9.32554 61.1757 9.11483C61.1757 8.90238 61.2042 8.73312 61.2396 8.73312C61.2742 8.73312 61.3027 8.61912 61.3027 8.47922C61.3027 8.33932 61.3312 8.22532 61.3666 8.22532C61.4011 8.22532 61.4296 8.13896 61.4296 8.03533C61.4296 7.92997 61.4581 7.84448 61.4935 7.84448C61.5281 7.84448 61.5566 7.78748 61.5566 7.71753C61.5566 7.64844 61.5859 7.59058 61.6205 7.59058C61.655 7.59058 61.6835 7.53358 61.6835 7.46363C61.6835 7.39368 61.7129 7.33668 61.7474 7.33668C61.782 7.33668 61.8105 7.27969 61.8105 7.20973C61.8105 7.13978 61.839 7.08279 61.8744 7.08279C61.9089 7.08279 61.9374 7.03097 61.9374 6.96966C61.9374 6.90748 61.9953 6.81594 62.0652 6.76498C62.1343 6.71489 62.1913 6.63458 62.1913 6.58622C62.1913 6.53786 62.2777 6.41868 62.3822 6.32109C62.4867 6.22264 62.5722 6.11038 62.5722 6.07065C62.5722 5.97911 63.1188 5.43159 63.2112 5.43159C63.2492 5.43159 63.3908 5.3176 63.5247 5.17769C63.6594 5.03866 63.808 4.9238 63.8555 4.9238C63.903 4.9238 63.9824 4.8668 64.0334 4.79685C64.0835 4.72776 64.175 4.6699 64.2372 4.6699C64.2993 4.6699 64.3503 4.6414 64.3503 4.60686C64.3503 4.57231 64.4073 4.54295 64.4772 4.54295C64.5472 4.54295 64.6042 4.51445 64.6042 4.47991C64.6042 4.44537 64.6612 4.416 64.7311 4.416C64.8011 4.416 64.8581 4.38751 64.8581 4.35296C64.8581 4.31842 64.9445 4.28906 65.0481 4.28906C65.1534 4.28906 65.2389 4.26056 65.2389 4.22601C65.2389 4.19147 65.3253 4.16211 65.4289 4.16211C65.5343 4.16211 65.6198 4.13361 65.6198 4.09906C65.6198 4.06452 65.7346 4.03516 65.8737 4.03516C66.0136 4.03516 66.1276 4.00666 66.1276 3.97212C66.1276 3.93584 66.3184 3.90821 66.5723 3.90821C66.8262 3.90821 67.0171 3.88144 67.0171 3.84517C67.0171 3.80717 67.2503 3.78126 67.5879 3.78126C67.9264 3.78126 68.1596 3.80717 68.1596 3.84517ZM25.9125 4.3806C25.9635 4.43186 25.9958 4.49878 26.0041 4.57059C26.0041 4.62499 26.0326 4.6699 26.0671 4.6699C26.1017 4.6699 26.131 4.75626 26.131 4.85989C26.131 4.96525 26.1595 5.05075 26.1941 5.05075C26.2286 5.05075 26.258 5.10774 26.258 5.17769C26.258 5.24765 26.2865 5.30464 26.3219 5.30464C26.3564 5.30464 26.3849 5.3625 26.3849 5.43159C26.3849 5.50154 26.4134 5.55854 26.448 5.55854C26.4834 5.55854 26.5119 5.6164 26.5119 5.68549C26.5119 5.75544 26.5404 5.81244 26.5758 5.81244C26.6103 5.81244 26.6388 5.8703 26.6388 5.94025C26.6388 6.00934 26.6673 6.0672 26.7027 6.0672C26.7373 6.0672 26.7658 6.1242 26.7658 6.19415C26.7658 6.26323 26.7943 6.32109 26.8297 6.32109C26.8642 6.32109 26.8927 6.37809 26.8927 6.44804C26.8927 6.51713 26.9212 6.57499 26.9566 6.57499C26.9912 6.57499 27.0197 6.66049 27.0197 6.76498C27.0197 6.87034 27.0482 6.95497 27.0836 6.95497C27.1181 6.95497 27.1466 7.01283 27.1466 7.08279C27.1466 7.15187 27.1751 7.20973 27.2105 7.20973C27.2451 7.20973 27.2736 7.26673 27.2736 7.33668C27.2736 7.40577 27.3021 7.46363 27.3375 7.46363C27.372 7.46363 27.4005 7.52063 27.4005 7.59058C27.4005 7.65967 27.429 7.71753 27.4644 7.71753C27.499 7.71753 27.5275 7.80389 27.5275 7.90752C27.5275 8.01288 27.556 8.09837 27.5914 8.09837C27.6259 8.09837 27.6544 8.15537 27.6544 8.22532C27.6544 8.29441 27.6829 8.35227 27.7183 8.35227C27.7529 8.35227 27.7814 8.40927 27.7814 8.47922C27.7814 8.54917 27.8099 8.60617 27.8453 8.60617C27.8798 8.60617 27.9083 8.66316 27.9083 8.73312C27.9083 8.80307 27.9368 8.86006 27.9722 8.86006C28.0068 8.86006 28.0353 8.91706 28.0353 8.98701C28.0353 9.05696 28.0646 9.11396 28.0992 9.11396C28.1337 9.11396 28.1631 9.17096 28.1631 9.24091C28.1631 9.31086 28.1907 9.36786 28.2261 9.36786C28.2607 9.36786 28.2892 9.42486 28.2892 9.49481C28.2892 9.56476 28.3185 9.62176 28.3531 9.62176C28.3876 9.62176 28.417 9.70811 28.417 9.81175C28.417 9.9171 28.4455 10.0026 28.48 10.0026C28.5146 10.0026 28.5439 10.0605 28.5439 10.1295C28.5439 10.1995 28.5724 10.2574 28.607 10.2574C28.6415 10.2574 28.6709 10.3144 28.6709 10.3843C28.6709 10.4534 28.6994 10.5113 28.7339 10.5113C28.7685 10.5113 28.7978 10.5683 28.7978 10.6382C28.7978 10.7073 28.8263 10.7652 28.8609 10.7652C28.8954 10.7652 28.9248 10.8507 28.9248 10.9551C28.9248 11.0596 28.9533 11.1451 28.9878 11.1451C29.0224 11.1451 29.0517 11.203 29.0517 11.2729C29.0517 11.342 29.0802 11.3999 29.1148 11.3999C29.1493 11.3999 29.1787 11.4569 29.1787 11.5268C29.1787 11.5959 29.2072 11.6538 29.2417 11.6538C29.2762 11.6538 29.3056 11.7108 29.3056 11.7807C29.3056 11.8498 29.3341 11.9077 29.3687 11.9077C29.4032 11.9077 29.4326 11.9647 29.4326 12.0346C29.4326 12.1037 29.4611 12.1616 29.4956 12.1616C29.5301 12.1616 29.5595 12.2186 29.5595 12.2885C29.5595 12.4138 29.5163 12.4155 25.941 12.4155C22.364 12.4155 22.3226 12.4138 22.3226 12.2885C22.3226 12.2194 22.3502 12.1616 22.3856 12.1616C22.4202 12.1616 22.4487 12.1046 22.4487 12.0346C22.4487 11.9656 22.4772 11.9077 22.5126 11.9077C22.5471 11.9077 22.5756 11.8213 22.5756 11.7177C22.5756 11.6123 22.6041 11.5268 22.6395 11.5268C22.6741 11.5268 22.7026 11.4698 22.7026 11.3999C22.7026 11.3299 22.7311 11.2729 22.7665 11.2729C22.801 11.2729 22.8295 11.216 22.8295 11.146C22.8295 11.076 22.858 11.0191 22.8934 11.0191C22.928 11.0191 22.9565 10.9327 22.9565 10.8291C22.9565 10.7237 22.985 10.6382 23.0204 10.6382C23.0549 10.6382 23.0834 10.5812 23.0834 10.5113C23.0834 10.4413 23.1119 10.3843 23.1473 10.3843C23.1819 10.3843 23.2104 10.3264 23.2104 10.2574C23.2104 10.1874 23.2389 10.1295 23.2743 10.1295C23.3088 10.1295 23.3373 10.0441 23.3373 9.93956C23.3373 9.83506 23.3658 9.74957 23.4012 9.74957C23.4358 9.74957 23.4643 9.69171 23.4643 9.62176C23.4643 9.55267 23.4927 9.49481 23.5282 9.49481C23.5627 9.49481 23.5912 9.40931 23.5912 9.30482C23.5912 9.20032 23.6197 9.11483 23.6551 9.11483C23.6896 9.11483 23.7181 9.05696 23.7181 8.98701C23.7181 8.91792 23.7475 8.86006 23.7821 8.86006C23.8166 8.86006 23.8451 8.80307 23.8451 8.73312C23.8451 8.66403 23.8736 8.60617 23.909 8.60617C23.9435 8.60617 23.972 8.51981 23.972 8.41618C23.972 8.31082 24.0014 8.22619 24.036 8.22619C24.0705 8.22619 24.0999 8.16832 24.0999 8.09837C24.0999 8.02929 24.1284 7.97142 24.1629 7.97142C24.1974 7.97142 24.2259 7.91443 24.2259 7.84448C24.2259 7.77539 24.2553 7.71753 24.2898 7.71753C24.3244 7.71753 24.3538 7.66053 24.3538 7.59058C24.3538 7.52063 24.3823 7.46363 24.4168 7.46363C24.4513 7.46363 24.4807 7.37727 24.4807 7.27364C24.4807 7.16828 24.5092 7.08279 24.5437 7.08279C24.5783 7.08279 24.6076 7.02579 24.6076 6.95584C24.6076 6.88589 24.6361 6.82889 24.6707 6.82889C24.7052 6.82889 24.7346 6.77189 24.7346 6.70194C24.7346 6.63199 24.7631 6.57499 24.7976 6.57499C24.8322 6.57499 24.8615 6.48863 24.8615 6.385C24.8615 6.27964 24.89 6.19415 24.9246 6.19415C24.9591 6.19415 24.9885 6.13629 24.9885 6.0672C24.9885 5.99725 25.017 5.94025 25.0515 5.94025C25.0861 5.94025 25.1154 5.85389 25.1154 5.74939C25.1154 5.6449 25.1439 5.5594 25.1785 5.5594C25.213 5.5594 25.2424 5.50154 25.2424 5.43159C25.2424 5.3625 25.2709 5.30464 25.3054 5.30464C25.34 5.30464 25.3693 5.24765 25.3693 5.17769C25.3693 5.10861 25.3978 5.05075 25.4324 5.05075C25.4669 5.05075 25.4963 4.99375 25.4963 4.9238C25.4963 4.85471 25.5248 4.79685 25.5593 4.79685C25.5939 4.79685 25.6232 4.72431 25.6232 4.63536C25.6232 4.50064 25.7269 4.30028 25.802 4.29165C25.8444 4.31366 25.8822 4.34355 25.9134 4.37973L25.9125 4.3806Z" fill="#050038"/>
</svg>
