<svg width="180" height="24" viewBox="0 0 180 24" fill="none" xmlns="http://www.w3.org/2000/svg">
<path d="M2.50289 0.727629C1.09533 2.89361 0.275083 5.38833 0.122623 7.96698C-0.0298377 10.5456 0.49073 13.1196 1.63324 15.4364L5.42616 23.0213C5.48225 23.1334 5.56842 23.2277 5.67503 23.2936C5.78164 23.3594 5.90448 23.3944 6.02981 23.3944H13.8946C14.0096 23.3944 14.1228 23.3651 14.2233 23.3091C14.3239 23.2531 14.4084 23.1723 14.469 23.0745C14.5295 22.9766 14.5641 22.865 14.5694 22.75C14.5746 22.6351 14.5504 22.5207 14.4991 22.4177L3.65233 0.723311C3.59989 0.615377 3.51804 0.524441 3.41621 0.460966C3.31437 0.397491 3.19668 0.364055 3.07668 0.364506C2.95668 0.364958 2.83925 0.399277 2.7379 0.463516C2.63654 0.527755 2.55538 0.619304 2.50375 0.727629H2.50289ZM94.7573 9.78502C94.7573 12.5831 96.0544 14.8025 101.13 15.7835C104.158 16.4192 104.792 16.9079 104.792 17.9166C104.792 18.8977 104.157 19.5316 102.024 19.5316C99.4461 19.4856 96.9201 18.8023 94.671 17.5427V22.0982C96.1987 22.8478 98.2169 23.6846 101.966 23.6846C107.272 23.6846 109.377 21.3183 109.377 17.8018L94.7573 9.78502ZM109.377 17.8018C109.377 14.4856 107.618 12.9285 102.658 11.862C99.919 11.2557 99.2558 10.6503 99.2558 9.78502C99.2558 8.69084 100.236 8.22795 102.052 8.22795C104.244 8.22795 106.407 8.8912 108.454 9.81438V5.46013C106.491 4.56646 104.353 4.12298 102.196 4.16215C97.2945 4.16215 94.7573 6.29609 94.7573 9.78502L109.377 17.8018ZM162.922 4.44972V23.3953H166.958V8.94906L168.66 12.7834L174.37 23.3953H179.445V4.44972H175.408V16.6765L173.879 13.1297L169.294 4.45059H162.922V4.44972ZM137.246 4.44972H132.834V23.3953H137.246V4.44972ZM127.745 17.8009C127.745 14.4847 125.986 12.9276 121.026 11.8611C118.287 11.2566 117.624 10.6503 117.624 9.78502C117.624 8.69084 118.604 8.22795 120.421 8.22795C122.613 8.22795 124.775 8.8912 126.823 9.81438V5.46013C124.86 4.56646 122.722 4.12298 120.565 4.16215C115.662 4.16215 113.125 6.29609 113.125 9.78502C113.125 12.5831 114.423 14.8025 119.498 15.7835C122.526 16.4192 123.16 16.9079 123.16 17.9166C123.16 18.8977 122.524 19.5316 120.391 19.5316C117.814 19.4853 115.288 18.8021 113.039 17.5427V22.0982C114.567 22.8478 116.586 23.6846 120.334 23.6846C125.64 23.6846 127.745 21.3183 127.745 17.8018V17.8009ZM60.4847 4.44972V23.3953H69.5524L70.9799 19.301H64.9253V4.44972H60.4847ZM42.5677 4.44972V8.54489H47.4703V23.3953H51.9109V8.54489H57.1581V4.44972H42.5677ZM36.1296 4.44972H30.3107L23.7041 23.3953H28.7493L29.6854 20.2052C31.992 20.8825 34.4447 20.8825 36.7513 20.2052L37.6884 23.3953H42.7343L36.1296 4.44972ZM33.2192 16.7879C32.3978 16.7879 31.5807 16.6704 30.7925 16.439L33.2192 8.17096L35.6477 16.4416C34.8591 16.6722 34.0417 16.7888 33.2201 16.7879H33.2192ZM85.1861 4.44972H79.3663L72.7598 23.3953H77.8067L78.7428 20.2052C81.0494 20.8825 83.5021 20.8825 85.8087 20.2052L86.7457 23.3953H91.7917L85.1861 4.44972ZM82.2766 16.7879C81.4547 16.788 80.6369 16.6705 79.8482 16.439L82.2766 8.17096L84.7042 16.4416C83.9157 16.6722 83.0982 16.7888 82.2766 16.7879ZM153.143 4.44972H147.324L140.718 23.3953H145.764L146.701 20.2052C149.007 20.8825 151.46 20.8825 153.767 20.2052L154.703 23.3953H159.75L153.143 4.44972ZM150.232 16.7879C149.41 16.788 148.593 16.6705 147.805 16.439L150.232 8.17096L152.66 16.4416C151.871 16.6722 151.054 16.7888 150.232 16.7879Z" fill="#050038"/>
</svg>
