<svg width="20" height="33" viewBox="0 0 20 33" fill="none" xmlns="http://www.w3.org/2000/svg">
<path d="M5.74981 1.60828C4.25752 2.73786 3.15643 4.26125 2.32479 5.90639C1.32129 7.92116 0.660644 10.132 0.317796 12.3177C0.103422 13.7322 -0.00281968 15.161 -6.61082e-06 16.5917C-6.61082e-06 17.9915 0.0975797 19.4165 0.317796 20.8405C0.660644 23.0272 1.29711 25.2622 2.32479 27.2519C3.15643 28.8979 4.2817 30.4696 5.74981 31.5509C6.87594 32.3609 8.2456 32.9266 9.64031 32.9758V32.9266C8.27065 31.993 7.14452 30.6907 6.23947 29.3159C4.13489 26.1715 3.10721 22.4373 2.86281 18.6798C2.76499 17.273 2.76499 15.8611 2.86281 14.4543C3.10721 10.6968 4.13489 6.93839 6.23947 3.81909C7.12034 2.46756 8.27065 1.16612 9.64031 0.232575V0.18335C8.2456 0.20753 6.85089 0.748141 5.74981 1.60828ZM15.6337 31.3039C16.0499 30.8617 16.4411 30.3712 16.8081 29.8548L16.4411 29.3392L16.0741 28.7494C15.6829 29.3392 15.2424 29.9532 14.7286 30.4688C14.9972 30.7633 15.34 31.0336 15.6337 31.3039ZM18.4006 31.7218C18.0458 31.9688 17.6692 32.1827 17.2754 32.3609C18.0739 32.7341 18.9395 32.9426 19.8204 32.9741V32.9248C19.3135 32.5653 18.8385 32.1628 18.4006 31.7218ZM14.2649 32.9507C14.4117 32.9266 14.5334 32.9024 14.6802 32.9024C14.5334 32.8039 14.4117 32.7055 14.2649 32.607C13.9304 32.348 13.6117 32.0691 13.3106 31.7719C12.9555 32.0189 12.5786 32.2328 12.1845 32.411C12.7137 32.6563 13.2734 32.8297 13.8486 32.9266C13.9954 32.9015 14.118 32.9266 14.2649 32.9507ZM14.7295 32.9758V32.9266C14.7053 32.9015 14.6802 32.9015 14.6561 32.8773C14.5093 32.9024 14.3866 32.9266 14.2398 32.9266C14.4117 32.9758 14.5827 32.9758 14.7295 32.9758ZM13.8486 1.876C13.4247 2.33248 13.0323 2.81721 12.6741 3.32684L13.0411 3.84154L13.4082 4.43137C13.7994 3.84154 14.2398 3.22752 14.7537 2.71196C14.4765 2.40811 14.1737 2.12871 13.8486 1.87686V1.876ZM11.0601 1.46061C11.4151 1.21366 11.7921 0.999747 12.1862 0.821546C11.3933 0.429252 10.5254 0.211623 9.64117 0.18335V0.232575C10.1587 0.587363 10.6347 0.999303 11.0601 1.46061ZM17.2762 0.797366C16.7475 0.552249 16.1884 0.37886 15.6138 0.281799C15.467 0.256755 15.3444 0.232575 15.1975 0.232575C15.0444 0.202534 14.8889 0.186062 14.7329 0.18335V0.232575C14.7571 0.256755 14.7813 0.256755 14.8063 0.281799C14.9531 0.380249 15.0749 0.477836 15.2217 0.576285C15.5646 0.846591 15.8824 1.1169 16.176 1.41138C16.543 1.1903 16.9101 0.969221 17.2771 0.798229L17.2762 0.797366Z" fill="#050038"/>
</svg>
